<svg id="Layer_1" data-name="Layer 1" xmlns="http://www.w3.org/2000/svg" viewBox="0 0 110 110"><defs><style>.cls-1{fill:#d2d2d3;}.cls-2{fill:#fff;}</style></defs><title>logo design</title><rect class="cls-1" x="-6.73" y="-3.27" width="120.4" height="118.93"/><path class="cls-2" d="M88.08,21.89l-37.76.19v4.23h0v2.41h0V33H66A11.29,11.29,0,0,1,77.47,43.58c0,.18,0,.36,0,.55a11.46,11.46,0,0,1-.71,4,1.58,1.58,0,0,1-.13.34l-42.32,0V33h9.16V22.12l-11.23.06h-9V86.39h.32v.39l19.87,0v-11H34.32V59.54h11.8v.06H76.63l.15.41A11.7,11.7,0,0,1,66.15,75.69c-.12,0-.26,0-.39,0h-.14l-1,0c-.4,0-.8,0-1.32,0h-13v11l11.1,0h4.9c11.84-.37,21.47-10.54,21.47-22.67a22.44,22.44,0,0,0-2.35-10,22.41,22.41,0,0,0,2.35-10,22.13,22.13,0,0,0-3-11.18h3.31Z"/></svg>