<svg width="25" height="25" viewBox="0 0 25 25" fill="none" xmlns="http://www.w3.org/2000/svg">
<path d="M12.5 12.5C13.7432 12.5 14.9355 12.0061 15.8146 11.1271C16.6936 10.248 17.1875 9.0557 17.1875 7.8125C17.1875 6.5693 16.6936 5.37701 15.8146 4.49794C14.9355 3.61886 13.7432 3.125 12.5 3.125C11.2568 3.125 10.0645 3.61886 9.18544 4.49794C8.30636 5.37701 7.8125 6.5693 7.8125 7.8125C7.8125 9.0557 8.30636 10.248 9.18544 11.1271C10.0645 12.0061 11.2568 12.5 12.5 12.5ZM15.625 7.8125C15.625 8.6413 15.2958 9.43616 14.7097 10.0222C14.1237 10.6083 13.3288 10.9375 12.5 10.9375C11.6712 10.9375 10.8763 10.6083 10.2903 10.0222C9.70424 9.43616 9.375 8.6413 9.375 7.8125C9.375 6.9837 9.70424 6.18884 10.2903 5.60279C10.8763 5.01674 11.6712 4.6875 12.5 4.6875C13.3288 4.6875 14.1237 5.01674 14.7097 5.60279C15.2958 6.18884 15.625 6.9837 15.625 7.8125ZM21.875 20.3125C21.875 21.875 20.3125 21.875 20.3125 21.875H4.6875C4.6875 21.875 3.125 21.875 3.125 20.3125C3.125 18.75 4.6875 14.0625 12.5 14.0625C20.3125 14.0625 21.875 18.75 21.875 20.3125ZM20.3125 20.3062C20.3109 19.9219 20.0719 18.7656 19.0125 17.7062C17.9938 16.6875 16.0766 15.625 12.5 15.625C8.92188 15.625 7.00625 16.6875 5.9875 17.7062C4.92813 18.7656 4.69062 19.9219 4.6875 20.3062H20.3125Z" fill="#9F9F9F"/>
</svg>
