<svg width="1107" height="450" viewBox="0 0 1107 450" fill="none" xmlns="http://www.w3.org/2000/svg">
<rect x="365.726" y="168.666" width="339.68" height="339.68" rx="59" transform="rotate(-30 365.726 168.666)" fill="#7755E2"/>
<g clip-path="url(#clip0_177_804)">
<path d="M235.628 40.2677C235.628 40.2677 377.375 -51.4123 484.068 75.8266C590.759 203.067 637.894 164.563 724.956 110.306C812.016 56.0464 897.857 90.193 964.333 144.568C1030.81 198.942 1070.05 159.699 1070.05 159.699" stroke="white" stroke-opacity="0.15"/>
<path d="M206.169 -52.8888C206.169 -52.8888 347.916 -144.569 454.608 -17.3298C561.3 109.911 608.435 71.4071 695.496 17.1494C782.557 -37.11 868.397 -2.9634 934.874 51.4111C1001.35 105.786 1040.59 66.543 1040.59 66.543" stroke="white" stroke-opacity="0.15"/>
<path d="M240.405 108.742C240.405 108.742 382.153 17.0605 488.845 144.301C595.538 271.541 642.672 233.038 729.733 178.778C816.794 124.52 902.635 158.667 969.111 213.041C1035.59 267.415 1074.83 228.172 1074.83 228.172" stroke="white" stroke-opacity="0.15"/>
<path d="M249.959 183.584C249.959 183.584 391.968 91.6441 498.637 218.908C605.305 346.169 652.536 307.572 739.754 253.155C826.973 198.74 912.871 232.829 979.36 287.188C1045.85 341.55 1085.18 302.22 1085.18 302.22" stroke="white" stroke-opacity="0.15"/>
<path d="M257.922 255.244C257.922 255.244 399.929 163.302 506.599 290.565C613.268 417.829 660.499 379.229 747.717 324.814C834.935 270.397 920.834 304.486 987.323 358.848C1053.81 413.207 1093.14 373.878 1093.14 373.878" stroke="white" stroke-opacity="0.15"/>
<path d="M299.324 360.343C299.324 360.343 441.331 268.402 548.001 395.664C654.67 522.928 701.901 484.329 789.119 429.914C876.337 375.497 962.236 409.586 1028.73 463.947C1095.22 518.308 1134.55 478.978 1134.55 478.978" stroke="white" stroke-opacity="0.15"/>
<path d="M343.116 467.83C343.116 467.83 484.863 376.15 591.556 503.39C698.247 630.629 745.383 592.127 832.443 537.868C919.504 483.61 1005.34 517.757 1071.82 572.13C1138.3 626.504 1177.54 587.262 1177.54 587.262" stroke="white" stroke-opacity="0.15"/>
<path d="M401.239 589.65C401.239 589.65 542.987 497.969 649.679 625.21C756.371 752.448 803.506 713.947 890.567 659.687C977.628 605.429 1063.47 639.576 1129.94 693.949C1196.42 748.323 1235.66 709.08 1235.66 709.08" stroke="white" stroke-opacity="0.15"/>
<path d="M449.808 701.916C449.808 701.916 591.555 610.234 698.247 737.475C804.94 864.714 852.074 826.212 939.136 771.953C1026.2 717.694 1112.04 751.841 1178.51 806.215C1244.99 860.588 1284.23 821.345 1284.23 821.345" stroke="white" stroke-opacity="0.15"/>
</g>
<rect x="22.4487" y="162.425" width="166.763" height="166.763" rx="29" transform="rotate(-30 22.4487 162.425)" fill="#F28C1C"/>
<g clip-path="url(#clip1_177_804)">
<path d="M-41.4215 99.3887C-41.4215 99.3887 28.1679 54.3791 80.5477 116.846C132.927 179.314 156.068 160.411 198.81 133.773C241.551 107.135 283.694 123.899 316.33 150.594C348.966 177.289 368.232 158.023 368.232 158.023" stroke="white" stroke-opacity="0.15"/>
<path d="M-55.8843 53.6544C-55.8843 53.6544 13.7051 8.64475 66.085 71.1117C118.464 133.579 141.605 114.676 184.347 88.039C227.089 61.4008 269.231 78.1648 301.868 104.86C334.504 131.554 353.77 112.288 353.77 112.288" stroke="white" stroke-opacity="0.15"/>
<path d="M-39.0763 133.005C-39.0763 133.005 30.5136 87.9953 82.8931 150.463C135.273 212.93 158.413 194.028 201.155 167.389C243.897 140.752 286.04 157.516 318.676 184.211C351.312 210.905 370.578 191.639 370.578 191.639" stroke="white" stroke-opacity="0.15"/>
<path d="M-34.3858 169.749C-34.3858 169.749 35.3321 124.612 87.7003 187.091C140.068 249.569 163.256 230.62 206.075 203.904C248.894 177.189 291.065 193.925 323.708 220.612C356.35 247.301 375.659 227.992 375.659 227.992" stroke="white" stroke-opacity="0.15"/>
<path d="M-30.4767 204.929C-30.4767 204.929 39.2406 159.792 91.6094 222.27C143.978 284.749 167.165 265.799 209.984 239.085C252.803 212.369 294.974 229.105 327.617 255.793C360.259 282.48 379.568 263.172 379.568 263.172" stroke="white" stroke-opacity="0.15"/>
<path d="M-10.1506 256.527C-10.1506 256.527 59.5667 211.389 111.935 273.868C164.304 336.347 187.491 317.397 230.31 290.682C273.129 263.967 315.301 280.702 347.943 307.391C380.586 334.079 399.894 314.77 399.894 314.77" stroke="white" stroke-opacity="0.15"/>
<path d="M11.3486 309.297C11.3486 309.297 80.9383 264.288 133.318 326.755C185.697 389.222 208.838 370.319 251.58 343.682C294.322 317.044 336.465 333.808 369.1 360.502C401.737 387.197 421.003 367.931 421.003 367.931" stroke="white" stroke-opacity="0.15"/>
<path d="M39.8836 369.103C39.8836 369.103 109.474 324.094 161.853 386.561C214.233 449.028 237.373 430.126 280.115 403.487C322.857 376.85 365 393.614 397.636 420.308C430.272 447.003 449.538 427.737 449.538 427.737" stroke="white" stroke-opacity="0.15"/>
<path d="M63.7282 424.22C63.7282 424.22 133.318 379.209 185.697 441.677C238.078 504.144 261.217 485.242 303.96 458.604C346.701 431.966 388.844 448.73 421.48 475.424C454.116 502.118 473.382 482.852 473.382 482.852" stroke="white" stroke-opacity="0.15"/>
</g>
<rect x="917.068" y="174.637" width="126.794" height="126.794" rx="29" transform="rotate(-30 917.068 174.637)" fill="#F28C1C"/>
<g clip-path="url(#clip2_177_804)">
<path d="M868.506 126.709C868.506 126.709 921.417 92.4867 961.242 139.982C1001.07 187.478 1018.66 173.105 1051.16 152.852C1083.66 132.598 1115.7 145.344 1140.51 165.641C1165.33 185.938 1179.98 171.289 1179.98 171.289" stroke="white" stroke-opacity="0.15"/>
<path d="M857.51 91.9355C857.51 91.9355 910.42 57.7136 950.246 105.209C990.071 152.705 1007.67 138.332 1040.16 118.079C1072.66 97.8254 1104.7 110.571 1129.52 130.868C1154.33 151.165 1168.98 136.516 1168.98 136.516" stroke="white" stroke-opacity="0.15"/>
<path d="M870.289 152.268C870.289 152.268 923.2 118.046 963.026 165.542C1002.85 213.037 1020.45 198.665 1052.94 178.411C1085.44 158.158 1117.48 170.904 1142.3 191.201C1167.11 211.497 1181.76 196.849 1181.76 196.849" stroke="white" stroke-opacity="0.15"/>
<path d="M873.856 180.205C873.856 180.205 926.864 145.886 966.681 193.39C1006.5 240.894 1024.13 226.487 1056.68 206.174C1089.24 185.862 1121.3 198.587 1146.12 218.878C1170.94 239.17 1185.62 224.489 1185.62 224.489" stroke="white" stroke-opacity="0.15"/>
<path d="M876.828 206.954C876.828 206.954 929.836 172.634 969.653 220.138C1009.47 267.643 1027.1 253.234 1059.66 232.923C1092.21 212.61 1124.28 225.335 1149.1 245.627C1173.91 265.918 1188.59 251.237 1188.59 251.237" stroke="white" stroke-opacity="0.15"/>
<path d="M892.282 246.185C892.282 246.185 945.29 211.865 985.107 259.369C1024.92 306.874 1042.55 292.465 1075.11 272.154C1107.67 251.841 1139.73 264.566 1164.55 284.858C1189.37 305.149 1204.05 290.468 1204.05 290.468" stroke="white" stroke-opacity="0.15"/>
<path d="M908.629 286.307C908.629 286.307 961.539 252.085 1001.37 299.581C1041.19 347.076 1058.78 332.704 1091.28 312.45C1123.78 292.197 1155.82 304.943 1180.64 325.24C1205.45 345.536 1220.1 330.888 1220.1 330.888" stroke="white" stroke-opacity="0.15"/>
<path d="M930.324 331.779C930.324 331.779 983.236 297.557 1023.06 345.053C1062.89 392.548 1080.48 378.176 1112.98 357.922C1145.48 337.669 1177.52 350.415 1202.33 370.711C1227.15 391.008 1241.79 376.36 1241.79 376.36" stroke="white" stroke-opacity="0.15"/>
<path d="M948.454 373.685C948.454 373.685 1001.36 339.463 1041.19 386.959C1081.02 434.454 1098.61 420.082 1131.11 399.828C1163.61 379.575 1195.65 392.321 1220.46 412.618C1245.28 432.914 1259.92 418.265 1259.92 418.265" stroke="white" stroke-opacity="0.15"/>
</g>
<defs>
<clipPath id="clip0_177_804">
<rect width="391.956" height="388.69" fill="white" transform="translate(594.845 -42) rotate(45)"/>
</clipPath>
<clipPath id="clip1_177_804">
<rect width="192.428" height="190.824" fill="white" transform="translate(134.933 59) rotate(45)"/>
</clipPath>
<clipPath id="clip2_177_804">
<rect width="146.308" height="145.088" fill="white" transform="translate(1002.59 96) rotate(45)"/>
</clipPath>
</defs>
</svg>
