<svg width="18" height="18" viewBox="0 0 18 18" fill="none" xmlns="http://www.w3.org/2000/svg">
<path d="M9 2C12.8661 2 16 5.1339 16 9C16 12.8661 12.8661 16 9 16C5.1339 16 2 12.8661 2 9C2 5.1339 5.1339 2 9 2ZM9 2.9765C7.40247 2.9765 5.87037 3.61112 4.74074 4.74074C3.61112 5.87037 2.9765 7.40247 2.9765 9C2.9765 10.5975 3.61112 12.1296 4.74074 13.2593C5.87037 14.3889 7.40247 15.0235 9 15.0235C10.5975 15.0235 12.1296 14.3889 13.2593 13.2593C14.3889 12.1296 15.0235 10.5975 15.0235 9C15.0235 7.40247 14.3889 5.87037 13.2593 4.74074C12.1296 3.61112 10.5975 2.9765 9 2.9765ZM8.349 5.9067C8.6185 5.9067 8.8369 6.1258 8.8369 6.3953V9.8141H12.2557C12.382 9.81888 12.5015 9.87242 12.5892 9.96346C12.6768 10.0545 12.7258 10.176 12.7258 10.3024C12.7258 10.4287 12.6768 10.5502 12.5892 10.6412C12.5015 10.7323 12.382 10.7858 12.2557 10.7906H8.349C8.21941 10.7906 8.09514 10.7391 8.00351 10.6475C7.91188 10.5559 7.8604 10.4316 7.8604 10.302V6.396C7.8604 6.1258 8.0788 5.9067 8.349 5.9067Z" fill="#74B570"/>
</svg>
