<svg width="512" height="459" viewBox="0 0 512 459" fill="none" xmlns="http://www.w3.org/2000/svg">
<g clip-path="url(#clip0_271_445)">
<path d="M136.614 217.58C136.248 216.683 135.893 215.787 135.547 214.87C125.541 188.241 130.875 161.611 145.276 137.917C158.511 116.144 182.187 109.553 201.526 93.6819C230.654 69.7713 250.141 29.9695 285.896 14.7385C301.719 7.99975 318.619 3.90134 335.657 1.72407C363.975 -1.88174 393.596 -0.334984 419.731 11.1327C445.866 22.6003 468.06 44.9839 474.707 72.6776C482.115 103.583 469.433 136.469 449.323 161.118C435.021 178.655 413.212 194.891 404.728 216.368C394.634 241.934 392.164 261.736 365.447 276.957C342.068 290.277 314.175 293.114 287.249 293.016C256.937 292.908 226.11 289.312 198.385 277.095C171.539 265.273 147.755 244.564 136.614 217.58Z" fill="#9588D6"/>
<path d="M446.271 227.708C450.588 226.86 454.904 226.535 459.052 226.801C479.211 228.092 498.008 241.392 506.364 259.736C514.72 278.08 512.517 300.661 501.208 317.36C486.728 338.739 464.978 333.626 445.451 321.488C428.216 310.769 402.318 292.041 403.889 268.938C405.331 247.648 425.766 231.737 446.271 227.708Z" fill="#CCBFF4"/>
</g>
<path d="M7.05815 170.736C4.9525 170.736 3.25857 172.445 3.25857 174.542V177.252C3.25857 178.266 2.85862 179.232 2.14105 179.951L1 181.094L1.78815 181.883C2.50572 182.602 2.90567 183.568 2.90567 184.582V186.88C2.90567 188.989 4.61136 190.686 6.70525 190.686H7.32871" stroke="#FF4440" stroke-miterlimit="10" stroke-linecap="round" stroke-linejoin="round"/>
<path d="M33.8907 170.736C35.9963 170.736 37.6903 172.445 37.6903 174.542V177.252C37.6903 178.266 38.0902 179.232 38.8078 179.951L39.9488 181.094L39.1607 181.883C38.4431 182.602 38.0432 183.568 38.0432 184.582V186.88C38.0432 188.989 36.3375 190.686 34.2436 190.686H33.6201" stroke="#FF4440" stroke-miterlimit="10" stroke-linecap="round" stroke-linejoin="round"/>
<path d="M12.7864 191.086C12.2453 192.477 11.7159 193.867 11.1748 195.258" stroke="#FF4440" stroke-miterlimit="10" stroke-linecap="round" stroke-linejoin="round"/>
<path d="M90.3899 191.086C89.8488 192.477 89.3194 193.867 88.7783 195.258" stroke="#FF4440" stroke-miterlimit="10" stroke-linecap="round" stroke-linejoin="round"/>
<path d="M107.401 191.086C106.86 192.477 106.33 193.867 105.789 195.258" stroke="#FF4440" stroke-miterlimit="10" stroke-linecap="round" stroke-linejoin="round"/>
<path d="M110.305 191.086C109.764 192.477 109.234 193.867 108.693 195.258" stroke="#FF4440" stroke-miterlimit="10" stroke-linecap="round" stroke-linejoin="round"/>
<path d="M29.0093 174.884H17.8105V186.102H29.0093V174.884Z" fill="black"/>
<path d="M52.4654 168.969C48.5365 176.593 48.4776 186.102 52.3243 193.761" stroke="#FF4440" stroke-miterlimit="10" stroke-linecap="round" stroke-linejoin="round"/>
<path d="M113.388 168.969C117.317 176.593 117.375 186.102 113.529 193.761" stroke="#FF4440" stroke-miterlimit="10" stroke-linecap="round" stroke-linejoin="round"/>
<path d="M87.8376 177.794H72.7217V184.971H87.8376V177.794Z" fill="black"/>
<path d="M104.6 184.971H94.166V177.794L104.6 184.971Z" fill="black"/>
<path d="M103.706 178.219H112.834" stroke="black" stroke-miterlimit="10" stroke-linecap="round" stroke-linejoin="round"/>
<path d="M107.718 181.506H112.835" stroke="black" stroke-miterlimit="10" stroke-linecap="round" stroke-linejoin="round"/>
<path d="M65.9219 172.268V193.219" stroke="#FF4440" stroke-miterlimit="10" stroke-linecap="round" stroke-linejoin="round"/>
<path d="M383.898 316.312H320.964V321.331H383.898V316.312Z" fill="#D4A189"/>
<path d="M233.315 310.208C243.972 302.348 247.878 287.948 242.114 275.658C239.702 270.52 235.797 266.137 233.809 260.81C230.715 252.515 232.703 243.276 234.726 234.662" stroke="black" stroke-width="6" stroke-miterlimit="10" stroke-linecap="round" stroke-linejoin="round"/>
<path d="M271.346 313.366H202.683C201.213 313.366 200.024 312.175 200.024 310.703V310.16C200.024 308.688 201.213 307.497 202.683 307.497H271.346C272.816 307.497 274.004 308.688 274.004 310.16V310.703C273.993 312.175 272.805 313.366 271.346 313.366Z" fill="black"/>
<path d="M352.431 280.949H125.939C123.327 280.949 121.222 278.828 121.222 276.223V143.775C121.222 141.159 123.339 139.05 125.939 139.05H352.431C355.043 139.05 357.148 141.171 357.148 143.775V276.212C357.148 278.828 355.031 280.949 352.431 280.949Z" fill="#ABC8F4"/>
<path d="M355.937 150.197H122.387V270.167H355.937V150.197Z" fill="#7755E2"/>
<path d="M169.64 161.898H143.808V165.693H169.64V161.898Z" fill="#ABC8F4"/>
<path d="M217.799 161.898H174.428V165.693H217.799V161.898Z" fill="#ABC8F4"/>
<path d="M273.616 161.898H222.904V165.693H273.616V161.898Z" fill="#ABC8F4"/>
<path d="M298.497 161.898H279.04V165.693H298.497V161.898Z" fill="#ABC8F4"/>
<path d="M220.352 171.243H214.294V175.037H220.352V171.243Z" fill="#ABC8F4"/>
<path d="M234.704 171.243H231.834V175.037H234.704V171.243Z" fill="#ABC8F4"/>
<path d="M283.815 171.243H237.256V175.037H283.815V171.243Z" fill="#ABC8F4"/>
<path d="M303.226 171.243H289.557V175.037H303.226V171.243Z" fill="#ABC8F4"/>
<path d="M228.327 171.243H222.904V175.037H228.327V171.243Z" fill="#ABC8F4"/>
<path d="M212.387 171.243H187.508V175.037H212.387V171.243Z" fill="#ABC8F4"/>
<path d="M184.627 171.243H152.102V175.037H184.627V171.243Z" fill="#ABC8F4"/>
<path d="M149.231 171.243H143.808V175.037H149.231V171.243Z" fill="#ABC8F4"/>
<path d="M148.595 180.599H143.808V184.393H148.595V180.599Z" fill="#ABC8F4"/>
<path d="M199.625 180.599H152.748V184.393H199.625V180.599Z" fill="#ABC8F4"/>
<path d="M278.722 180.599H204.73V184.393H278.722V180.599Z" fill="#ABC8F4"/>
<path d="M303.225 180.599H281.263V184.393H303.225V180.599Z" fill="#ABC8F4"/>
<path d="M297.849 189.943H241.079V193.738H297.849V189.943Z" fill="#ABC8F4"/>
<path d="M152.736 189.943H143.808V193.738H152.736V189.943Z" fill="#ABC8F4"/>
<path d="M201.225 189.943H156.571V193.738H201.225V189.943Z" fill="#ABC8F4"/>
<path d="M233.103 189.943H204.083V193.738H233.103V189.943Z" fill="#ABC8F4"/>
<path d="M183.039 199.3H174.428V203.094H183.039V199.3Z" fill="#ABC8F4"/>
<path d="M170.593 199.3H143.808V203.094H170.593V199.3Z" fill="#ABC8F4"/>
<path d="M194.202 199.3H186.227V203.094H194.202V199.3Z" fill="#ABC8F4"/>
<path d="M233.433 199.3H197.39V203.094H233.433V199.3Z" fill="#ABC8F4"/>
<path d="M254.795 199.3H238.526V203.094H254.795V199.3Z" fill="#ABC8F4"/>
<path d="M278.405 199.3H261.818V203.094H278.405V199.3Z" fill="#ABC8F4"/>
<path d="M297.849 199.3H286.686V203.094H297.849V199.3Z" fill="#ABC8F4"/>
<path d="M267.653 208.644H249.479V212.438H267.653V208.644Z" fill="#ABC8F4"/>
<path d="M153.371 208.644H143.808V212.438H153.371V208.644Z" fill="#ABC8F4"/>
<path d="M205.684 208.644H160.077V212.438H205.684V208.644Z" fill="#ABC8F4"/>
<path d="M221.939 208.644H212.693V212.438H221.939V208.644Z" fill="#ABC8F4"/>
<path d="M241.079 208.644H226.41V212.438H241.079V208.644Z" fill="#ABC8F4"/>
<path d="M298.814 208.644H276.487V212.438H298.814V208.644Z" fill="#ABC8F4"/>
<path d="M169.64 217.058H143.808V220.852H169.64V217.058Z" fill="#ABC8F4"/>
<path d="M217.799 217.058H174.428V220.852H217.799V217.058Z" fill="#ABC8F4"/>
<path d="M273.616 217.058H222.904V220.852H273.616V217.058Z" fill="#ABC8F4"/>
<path d="M298.497 217.058H279.04V220.852H298.497V217.058Z" fill="#ABC8F4"/>
<path d="M220.352 226.414H214.294V230.208H220.352V226.414Z" fill="#ABC8F4"/>
<path d="M234.704 226.414H231.834V230.208H234.704V226.414Z" fill="#ABC8F4"/>
<path d="M283.815 226.414H237.256V230.208H283.815V226.414Z" fill="#ABC8F4"/>
<path d="M303.226 226.414H289.557V230.208H303.226V226.414Z" fill="#ABC8F4"/>
<path d="M228.327 226.414H222.904V230.208H228.327V226.414Z" fill="#ABC8F4"/>
<path d="M212.387 226.414H187.508V230.208H212.387V226.414Z" fill="#ABC8F4"/>
<path d="M184.627 226.414H152.102V230.208H184.627V226.414Z" fill="#ABC8F4"/>
<path d="M149.231 226.414H143.808V230.208H149.231V226.414Z" fill="#ABC8F4"/>
<path d="M148.595 235.758H143.808V239.553H148.595V235.758Z" fill="#ABC8F4"/>
<path d="M199.625 235.758H152.748V239.553H199.625V235.758Z" fill="#ABC8F4"/>
<path d="M278.722 235.758H204.73V239.553H278.722V235.758Z" fill="#ABC8F4"/>
<path d="M303.225 235.758H281.263V239.553H303.225V235.758Z" fill="#ABC8F4"/>
<path d="M297.849 245.115H241.079V248.909H297.849V245.115Z" fill="#ABC8F4"/>
<path d="M152.736 245.115H143.808V248.909H152.736V245.115Z" fill="#ABC8F4"/>
<path d="M201.225 245.115H156.571V248.909H201.225V245.115Z" fill="#ABC8F4"/>
<path d="M233.103 245.115H204.083V248.909H233.103V245.115Z" fill="#ABC8F4"/>
<path d="M183.039 254.459H174.428V258.253H183.039V254.459Z" fill="#ABC8F4"/>
<path d="M170.593 254.459H143.808V258.253H170.593V254.459Z" fill="#ABC8F4"/>
<path d="M194.202 254.459H186.227V258.253H194.202V254.459Z" fill="#ABC8F4"/>
<path d="M233.433 254.459H197.39V258.253H233.433V254.459Z" fill="#ABC8F4"/>
<path d="M254.795 254.459H238.526V258.253H254.795V254.459Z" fill="#ABC8F4"/>
<path d="M278.405 254.459H261.818V258.253H278.405V254.459Z" fill="#ABC8F4"/>
<path d="M297.849 254.459H286.686V258.253H297.849V254.459Z" fill="#ABC8F4"/>
<path d="M267.653 263.804H249.479V267.598H267.653V263.804Z" fill="#ABC8F4"/>
<path d="M153.371 263.804H143.808V267.598H153.371V263.804Z" fill="#ABC8F4"/>
<path d="M205.684 263.804H160.077V267.598H205.684V263.804Z" fill="#ABC8F4"/>
<path d="M221.939 263.804H212.693V267.598H221.939V263.804Z" fill="#ABC8F4"/>
<path d="M241.079 263.804H226.41V267.598H241.079V263.804Z" fill="#ABC8F4"/>
<path d="M298.814 263.804H276.487V267.598H298.814V263.804Z" fill="#ABC8F4"/>
<path d="M63.8752 270.131C58.6757 265.547 53.9704 260.151 50.8531 253.893C49.3238 250.83 48.1828 247.566 47.4652 244.207C47.1006 242.534 46.8535 240.837 46.7124 239.128C46.6418 238.268 47.0653 234.922 46.5947 234.356C50.0061 238.492 55.0173 240.484 58.6404 244.219C62.2871 247.978 65.6514 252.892 67.91 257.629C69.2393 260.41 70.2274 263.379 70.6862 266.431C70.8979 267.857 71.839 273.077 70.498 274.126C70.0745 274.456 68.8628 273.737 68.4864 273.549C66.769 272.677 65.3103 271.392 63.8752 270.131Z" fill="#74B570"/>
<path d="M77.0858 306.26C76.3211 284.731 68.3573 263.521 54.7471 246.835" stroke="#9CD499" stroke-width="0.5" stroke-miterlimit="10" stroke-linecap="round" stroke-linejoin="round"/>
<path d="M68.9924 276.671C66.4397 274.291 63.0637 272.901 59.6287 272.311C56.1821 271.722 52.653 271.899 49.1946 272.335C45.0657 272.865 40.9955 273.773 37.0312 275.033C39.0663 278.604 42.6777 281.078 46.5243 282.528C49.7004 283.718 53.0883 284.295 56.4879 284.307C61.4756 284.319 66.428 283.105 71.4157 283.258C72.2744 283.282 73.039 283.211 73.6978 283.824C72.9214 281.126 71.0392 278.568 68.9924 276.671Z" fill="#74B570"/>
<path d="M73.4742 283.506C70.4863 280.36 66.6632 278.663 62.3696 278.074C58.0759 277.484 53.7117 277.861 49.3945 278.25" fill="#74B570"/>
<path d="M73.4742 283.506C70.4863 280.36 66.6632 278.663 62.3696 278.074C58.0759 277.484 53.7117 277.861 49.3945 278.25" stroke="#9CD499" stroke-width="0.5" stroke-miterlimit="10" stroke-linecap="round" stroke-linejoin="round"/>
<path d="M94.048 273.195C92.4129 275.776 90.0367 277.885 88.3075 280.395C87.1782 282.033 86.5548 283.895 85.649 285.639C84.4844 287.889 83.1199 290.046 81.3436 291.86C81.0848 292.12 80.7672 292.403 80.4025 292.344C80.1084 292.296 79.8967 292.049 79.7202 291.802C78.2851 289.716 78.4498 287.241 78.6145 284.837C78.8027 281.998 79.1673 279.181 79.6967 276.388C80.1672 273.879 80.8025 271.31 82.0964 269.083C83.3198 266.985 84.6726 265.512 86.3548 263.745C88.7545 261.235 90.6955 258.289 92.0836 255.095C93.3187 257.511 94.5656 259.962 95.295 262.578C96.0243 265.194 96.2007 268.046 95.3067 270.614C94.9891 271.545 94.5539 272.394 94.048 273.195Z" fill="#74B570"/>
<path d="M79.0264 302.996C78.3323 297.564 80.1556 292.237 80.7438 286.888C81.379 281.208 83.2259 275.67 86.1667 270.768" stroke="#9CD499" stroke-width="0.5" stroke-miterlimit="10" stroke-linecap="round" stroke-linejoin="round"/>
<path d="M53.2529 298.907C54.6175 307.415 59.9345 316.194 67.1337 320.613C67.6396 320.919 68.2277 321.072 68.8277 321.072H84.92C85.5199 321.072 86.1081 320.919 86.6139 320.613C93.8131 316.205 99.1302 307.415 100.495 298.907H53.2529Z" fill="#DBCFAB"/>
<path d="M390.322 321.355H38.9609V330.028H390.322V321.355Z" fill="#533B9F"/>
<path d="M390.322 346.678H38.9609V355.351H390.322V346.678Z" fill="#533B9F"/>
<path d="M64.2285 324.266H59.0762V418.205H64.2285V324.266Z" fill="#533B9F"/>
<path d="M369.701 324.266H364.549V418.205H369.701V324.266Z" fill="#533B9F"/>
<path d="M249.349 197.791C251.843 195.93 254.642 194.775 257.03 192.76C259.324 190.827 261.253 188.518 263.288 186.314C266.076 183.309 273.652 175.591 277.204 180.988C280.569 186.114 282.569 191.534 282.827 197.65C282.98 201.185 282.992 204.814 282.474 208.302C282.027 211.272 281.204 214.147 279.757 216.775C278.487 219.084 276.757 221.123 274.864 222.938C273.228 224.505 271.076 226.862 268.876 227.58C263.924 229.195 258.054 228.888 253.172 227.239C251.372 226.638 249.608 225.836 248.114 224.658C243.855 221.335 242.314 215.479 242.549 210.082C242.644 207.925 242.985 205.734 243.926 203.789C245.114 201.35 247.161 199.417 249.349 197.791Z" fill="#1C1C1B"/>
<path d="M95.5775 211.944C95.3658 211.319 95.154 210.694 94.8952 210.07C93.6601 207.089 91.5074 204.39 89.0018 202.387C87.2726 200.996 85.3198 199.912 83.5671 198.569C81.4261 196.931 79.0852 195.6 76.9443 193.938C74.4622 192.017 71.9919 190.108 69.5098 188.188C68.9569 187.763 68.2747 187.316 67.6159 187.551C67.063 187.752 66.7925 188.376 66.6866 188.954C66.2514 191.192 67.6747 193.137 69.2628 194.586C71.3214 196.46 73.7564 198.18 75.2857 200.549C78.3324 205.286 71.9448 204.06 69.698 201.574C68.5923 200.348 67.8982 198.817 67.2395 197.296C66.169 194.822 65.8044 192.135 65.0985 189.555C64.828 188.565 63.9575 183.51 61.8989 185.701C61.5342 186.09 61.4166 186.644 61.3343 187.174C61.1108 188.694 61.1343 190.25 61.3813 191.77C60.8755 191.405 60.205 191.97 59.9226 192.536C59.2639 193.856 59.5933 195.152 58.8287 196.354C58.017 197.65 57.5817 199.123 57.7464 200.655C57.8876 201.975 58.4287 203.2 59.0169 204.39C60.8402 208.055 63.5575 213.204 67.1218 215.361C70.8273 217.6 75.3445 219.202 78.3088 222.478C79.2146 223.48 79.6852 224.8 80.1204 226.084C86.0492 243.43 88.8959 261.847 93.4483 279.582C95.8598 288.962 98.4595 298.412 102.33 307.309C103.859 310.82 107.988 318.244 111.235 320.4C114.693 322.71 115.458 319.858 119.704 318.963C123.316 318.197 126.198 315.557 128.75 312.882C132.656 308.782 137.455 303.114 137.643 297.116C137.796 292.332 135.961 286.299 133.867 282.068C133.326 280.984 132.75 279.935 132.162 278.887C126.268 268.47 117.834 259.444 112.623 248.768C111.411 246.293 110.235 243.795 109.058 241.308C105.718 234.179 102.494 226.991 99.1301 219.862C98.2831 218.083 97.4361 216.303 96.5774 214.536C96.1657 213.664 95.8716 212.804 95.5775 211.944Z" fill="#F19C7C" stroke="#1C1C1B" stroke-width="0.5" stroke-miterlimit="10" stroke-linecap="round" stroke-linejoin="round"/>
<path d="M61.3926 191.393C61.8278 192.972 62.2631 194.539 62.6983 196.118C63.6041 199.394 64.651 202.894 67.3213 205.015" stroke="#1C1C1B" stroke-width="0.5" stroke-miterlimit="10" stroke-linecap="round" stroke-linejoin="round"/>
<path d="M59.0869 196.248C59.9574 200.49 61.7337 204.555 64.2628 208.067C64.4863 208.373 64.7098 208.679 65.0157 208.903" stroke="#1C1C1B" stroke-width="0.5" stroke-miterlimit="10" stroke-linecap="round" stroke-linejoin="round"/>
<path d="M95.4366 211.166C95.3778 212.415 95.2013 213.652 94.9072 214.854L95.4366 211.166Z" fill="white"/>
<path d="M95.4366 211.166C95.3778 212.415 95.2013 213.652 94.9072 214.854" stroke="#1C1C1B" stroke-width="0.5" stroke-miterlimit="10" stroke-linecap="round" stroke-linejoin="round"/>
<path d="M251.314 187.54C251.278 185.784 251.267 184.04 251.22 182.343L218.847 182.178C219.011 192.206 218.506 201.515 217.894 210.2C217.6 214.406 217.329 217.364 215.753 220.911C222.423 223.692 227.152 227.192 234.386 227.934C240.927 228.606 249.349 228.759 255.149 225.672C250.396 213.098 251.584 200.207 251.314 187.54Z" fill="#FF4440"/>
<path d="M294.132 381.086C295.802 380.78 297.449 380.356 299.014 379.684C304.342 377.398 308.319 372.202 309.142 366.463C310.33 358.179 305.448 350.343 303.895 342.118C303.154 338.206 303.154 334.046 301.319 330.511C300.484 328.897 299.296 327.482 298.449 325.88C295.414 320.165 297.826 314.662 297.614 308.723C297.414 303.137 296.873 297.564 296.908 291.896C296.932 288.101 296.955 284.295 297.602 280.56C298.273 276.671 299.602 272.912 300.331 269.035C303.954 249.852 293.32 226.049 275.581 217.199C260.371 209.61 242.938 207.536 225.951 207.902C211.294 208.22 178.956 215.985 170.075 227.663C158.417 242.97 164.64 265.159 176.604 278.333C174.451 290.564 172.428 302.819 171.11 315.169C169.969 325.927 171.345 337.44 167.428 347.621C166.687 349.53 165.817 351.415 165.487 353.442C165.181 355.327 165.37 357.248 165.64 359.133C167.087 369.185 171.675 379.519 180.544 384.421C186.991 387.98 194.708 388.18 202.071 388.109C231.151 387.827 260.124 384.798 289.038 381.758C290.744 381.57 292.45 381.393 294.132 381.086Z" fill="#F6B500"/>
<path d="M210.47 209.375C195.472 211.767 181.414 217.8 169.286 227.227C161.346 233.402 154.394 240.719 147.912 248.39C141.701 255.743 136.102 265.795 128.738 271.864C124.985 266.278 121.645 260.398 118.762 254.318C118.021 252.762 117.292 251.171 116.186 249.852C115.398 248.909 114.422 248.131 113.74 247.106C112.693 245.527 112.446 243.571 111.81 241.792C111.175 240.012 109.869 238.186 107.987 238.033C101.894 243.818 92.3537 244.337 85.672 249.439C85.3191 249.71 84.9662 250.017 84.8133 250.429C84.6839 250.818 84.7545 251.242 84.8251 251.643C86.0249 258.289 87.0366 265.005 88.2718 271.604C89.4834 278.074 89.8951 285.368 91.9655 291.613C93.9064 300.592 97.1414 309.654 103.635 316.158C106.376 318.904 111.269 321.19 114.904 322.639C119.633 324.525 124.997 324.843 130.032 324.725C140.407 324.478 150.747 320.895 158.793 314.285C162.111 311.563 165.028 308.393 167.933 305.247C173.215 299.52 178.509 294.406 182.05 287.489C184.438 282.834 187.002 278.25 189.543 273.666C191.107 270.862 200.001 251.36 204.177 252.232C206.317 252.68 208.541 253.033 210.799 253.34C210.799 247.719 211.164 242.11 211.423 236.489C211.564 233.484 211.705 230.479 211.729 227.474C211.752 225.424 210.682 222.502 211.176 220.616C212.364 216.15 214.599 211.979 217.669 208.526C215.258 208.703 212.858 208.998 210.47 209.375Z" fill="#F6B500"/>
<path d="M121.477 294.063C120.631 288.124 126.06 276.916 128.88 271.789L127.294 269.668C124.651 275.325 119.362 286.851 121.477 294.063Z" fill="#615024"/>
<path d="M247.137 210.046C253.959 210.977 254.336 211.166 261.135 211.955C284.427 214.677 306.236 239.352 319.964 256.309C330.739 269.613 351.219 293.628 345.785 312.364C342.397 324.065 327.669 327.023 317.164 325.149C302.06 322.463 291.485 310.396 282.686 298.73C279.58 294.606 255.042 251.937 253.76 252.208C251.619 252.656 249.395 253.01 247.137 253.316V210.046Z" fill="#F6B500"/>
<path d="M240.996 153.002C238.22 147.122 233.75 143.351 227.833 140.688C224.151 139.038 219.94 138.26 216.058 139.344C214.223 139.863 212.517 140.77 210.847 141.678C209.482 142.408 208.118 143.15 206.953 144.176C204.036 146.756 202.083 151.34 201.26 155.064C200.566 158.175 200.024 161.309 199.636 164.467C198.66 166.965 197.472 169.369 195.743 171.313C195.084 172.056 195.307 173.222 196.225 173.588C197.095 173.941 198.001 174.189 198.93 174.318C198.883 176.31 198.895 178.301 198.978 180.293C199.166 185.206 200.06 190.721 204.059 193.573C211.011 198.546 226.398 194.221 232.433 189.342C237.914 184.924 241.408 178.337 242.82 171.431C244.043 165.316 243.678 158.693 240.996 153.002Z" fill="#F19C7C"/>
<path d="M200.742 166.251C201.561 166.251 202.172 165.921 202.257 165.87C202.367 165.809 202.4 165.675 202.328 165.58C202.257 165.485 202.101 165.457 201.99 165.518C201.893 165.574 200.995 166.055 199.955 165.697C198.863 165.317 198.629 164.339 198.622 164.299C198.596 164.188 198.466 164.115 198.336 164.132C198.206 164.154 198.115 164.266 198.141 164.378C198.167 164.506 198.46 165.63 199.773 166.083C200.111 166.206 200.443 166.251 200.742 166.251Z" fill="#22130C"/>
<path d="M199.353 159.887C199.282 159.887 198.777 159.88 198.42 160.294C198.125 160.638 198.132 161.039 198.139 161.123L199.353 159.887Z" fill="#22130C"/>
<path d="M199.493 159.901C199.359 160.062 199.177 160.287 198.945 160.533C198.567 160.934 198.455 160.983 198.469 161.067C198.518 161.383 200.054 161.18 201.604 161.545C202.712 161.805 203.553 162.297 204.114 162.69C204.058 162.437 203.974 162.219 203.876 162.03C202.894 160.083 199.962 159.922 199.493 159.901Z" fill="#22130C"/>
<path d="M205.248 161.887C204.965 161.356 204.73 160.802 204.542 160.19C204.001 158.41 204.965 157.35 203.26 155.806C202.966 155.535 201.166 154.71 199.919 154.592C199.331 154.533 198.919 153.944 199.06 153.355C200.719 146.403 206.518 140.782 213.141 137.907C220.317 134.796 228.363 134.431 236.174 134.619C241.985 134.76 248.313 135.409 252.537 139.415C257.348 143.987 257.995 151.069 260.406 156.926C262.947 163.1 268.135 167.837 272.24 172.951C276.334 178.054 279.757 183.934 280.733 190.415C281.451 195.152 280.875 200.926 278.004 204.909C275.075 208.974 269.829 210.954 265.476 213.075C258.583 216.421 252.325 221.335 244.867 223.103C237.209 224.917 228.963 223.138 222.175 219.155C218.446 216.963 214.788 213.534 214.788 209.21C214.788 207.501 215.364 205.84 215.341 204.143C215.305 201.397 213.717 198.899 211.87 196.872C210.024 194.834 207.859 193.09 206.236 190.874C203.448 187.056 203.436 182.072 205.636 177.995C207.212 175.061 208.965 172.704 208.647 169.216C208.377 166.235 206.577 164.42 205.248 161.887Z" fill="#1C1C1B"/>
<path d="M236.385 122.753C238.35 121.457 240.879 121.457 243.208 121.775C245.466 122.081 247.89 122.765 249.231 124.615C253.842 130.931 244.196 139.309 237.973 138.154C230.621 136.799 230.88 126.406 236.385 122.753Z" fill="#1C1C1B"/>
<path d="M173.157 300.239C174.816 292.414 176.027 291.578 177.686 283.765C178.568 279.617 180.427 276.271 182.168 272.406" stroke="black" stroke-width="0.5" stroke-miterlimit="10" stroke-linecap="round" stroke-linejoin="round"/>
<path d="M297.12 315.039C296.414 303.632 292.615 291.53 289.968 280.418" stroke="black" stroke-width="0.5" stroke-miterlimit="10" stroke-linecap="round" stroke-linejoin="round"/>
<path d="M269.955 205.761C269.86 203.911 269.484 201.92 268.096 200.694C267.261 199.964 266.167 199.61 265.096 199.292C248.757 194.425 231.253 193.553 214.525 196.782C212.161 197.242 209.75 197.796 207.738 199.139C204.315 201.425 202.609 205.75 202.75 209.874C202.891 213.998 204.668 217.91 207.009 221.304C216.208 234.69 233.253 239.651 248.663 235.503C260.567 232.298 270.59 217.887 269.955 205.761Z" fill="#615024"/>
<path d="M269.994 203.754C269.9 201.904 269.523 199.912 268.135 198.687C267.3 197.956 266.206 197.603 265.135 197.285C248.796 192.418 231.292 191.546 214.565 194.775C212.2 195.234 209.789 195.788 207.777 197.131C204.354 199.418 202.648 203.742 202.789 207.866C202.931 211.991 204.707 215.903 207.048 219.297C216.247 232.683 233.292 237.644 248.702 233.496C260.606 230.291 270.629 215.879 269.994 203.754Z" fill="#F6B500"/>
<path d="M232.422 133.924C237.174 135.267 242.209 136.622 246.961 135.303" stroke="#FF4440" stroke-miterlimit="10" stroke-linecap="round" stroke-linejoin="round"/>
<path d="M295.497 418.912C294.544 419.242 293.579 419.56 292.615 419.866C275.511 425.452 258.195 431.085 240.244 432.228C225.469 433.17 210.683 431.049 196.037 428.928C179.263 426.501 162.935 426.171 158.935 407.517C156.724 397.195 155.959 386.554 156.689 376.008C157.089 370.198 158.03 364.2 161.312 359.393C163.264 356.541 165.923 354.279 168.311 351.78C188.038 331.112 179.357 300.91 195.955 280.713C211.8 261.423 239.174 256.792 261.265 267.586C275.311 274.444 287.98 286.664 290.297 302.56C292.932 320.66 292.132 338.371 303.966 353.913C306.884 357.743 310.401 361.16 312.613 365.426C319.424 378.529 319.235 403.746 306.672 413.433C303.378 415.978 299.473 417.557 295.497 418.912Z" fill="#39349A"/>
<path d="M378.605 316.512H360.972L355.196 283.553H385.111L378.605 316.512Z" fill="#F5CBB8"/>
<path d="M375.3 293.828C378.265 292.379 381.476 291.46 384.758 291.13C385.523 291.047 386.311 291.201 386.97 291.625C388.711 292.744 388.228 294.618 387.711 296.173L384.511 305.895C384.135 307.026 383.064 307.78 381.876 307.698C376.724 307.344 371.536 307.556 366.431 308.322" stroke="#F5CBB8" stroke-miterlimit="10" stroke-linecap="round" stroke-linejoin="round"/>
<path d="M297.778 119.006H288.474V109.673H297.778V119.006Z" fill="#1C1C1B"/>
<path d="M319.659 119.006H302.343L311.365 108.86L319.659 119.006ZM305.448 117.603H316.706L311.306 111.005L305.448 117.603Z" fill="#F7D36F"/>
<path d="M332.174 108.775L322.714 118.463L323.715 119.444L333.175 109.756L332.174 108.775Z" fill="#FF4440"/>
<path d="M337.648 108.79L328.189 118.478L329.19 119.458L338.649 109.771L337.648 108.79Z" fill="#FF4440"/>
<path d="M345.326 113.102V113.974H344.949C344.655 113.974 344.467 114.139 344.467 114.516V117.038C344.467 118.098 343.902 118.652 342.808 118.652H342.326V117.792H342.585C343.15 117.792 343.42 117.486 343.42 116.944V114.551C343.42 113.927 343.608 113.679 344.008 113.55C343.608 113.42 343.42 113.161 343.42 112.548V110.156C343.42 109.614 343.161 109.308 342.585 109.308H342.326V108.448H342.808C343.902 108.448 344.467 109.001 344.467 110.062V112.572C344.467 112.961 344.655 113.114 344.949 113.114H345.326V113.102Z" fill="#F7D36F"/>
<path d="M352.361 119.666C350.302 119.666 348.69 117.179 348.69 114.009C348.69 110.84 350.302 108.353 352.361 108.353C354.419 108.353 356.031 110.84 356.031 114.009C356.019 117.179 354.407 119.666 352.361 119.666ZM352.361 109.756C351.29 109.756 350.09 111.5 350.09 114.009C350.09 116.519 351.29 118.263 352.361 118.263C353.431 118.263 354.631 116.519 354.631 114.009C354.631 111.5 353.431 109.756 352.361 109.756Z" fill="#FF4440"/>
<path d="M361.148 119.666C359.089 119.666 357.478 117.179 357.478 114.009C357.478 110.84 359.089 108.353 361.148 108.353C363.206 108.353 364.818 110.84 364.818 114.009C364.818 117.179 363.206 119.666 361.148 119.666ZM361.148 109.756C360.077 109.756 358.877 111.5 358.877 114.009C358.877 116.519 360.077 118.263 361.148 118.263C362.218 118.263 363.418 116.519 363.418 114.009C363.418 111.5 362.218 109.756 361.148 109.756Z" fill="#F7D36F"/>
<path d="M259.971 82.7591L266.041 89.193L259.971 93.4705" stroke="#F7D36F" stroke-miterlimit="10" stroke-linecap="round" stroke-linejoin="round"/>
<path d="M264.971 82.7592L271.029 89.193L264.971 93.4705" stroke="#F7D36F" stroke-miterlimit="10" stroke-linecap="round" stroke-linejoin="round"/>
<path d="M278.158 92.7635C279.931 92.7635 281.369 90.5266 281.369 87.7672C281.369 85.0078 279.931 82.7709 278.158 82.7709C276.384 82.7709 274.946 85.0078 274.946 87.7672C274.946 90.5266 276.384 92.7635 278.158 92.7635Z" stroke="#F7D36F" stroke-miterlimit="10" stroke-linecap="round" stroke-linejoin="round"/>
<path d="M288.838 83.4779V93.4705" stroke="#F7D36F" stroke-miterlimit="10" stroke-linecap="round" stroke-linejoin="round"/>
<path d="M299.179 84.1967H293.474V93.4823H299.179V84.1967Z" fill="#1C1C1B"/>
<path d="M312.013 84.1967H303.461V93.4823H312.013V84.1967Z" stroke="#F7D36F" stroke-miterlimit="10" stroke-linecap="round" stroke-linejoin="round"/>
<path d="M325.551 84.1967H315.929V93.4823H325.551V84.1967Z" fill="#1C1C1B"/>
<path d="M331.998 80.5438C333.209 80.1903 334.339 81.5101 334.468 82.7709C334.597 84.0318 334.115 85.2808 334.033 86.5417C333.95 87.8026 334.491 89.3226 335.738 89.5819C335.056 89.3462 334.327 89.9236 334.103 90.6071C333.88 91.2905 334.021 92.0329 334.115 92.7517C334.28 94.1422 334.221 95.6387 333.444 96.7935C332.668 97.9483 330.962 98.5728 329.81 97.7951" stroke="#F7D36F" stroke-miterlimit="10" stroke-linecap="round" stroke-linejoin="round"/>
<path d="M340.139 80.9916C342.303 86.1764 342.327 92.2214 340.198 97.418" stroke="#F7D36F" stroke-miterlimit="10" stroke-linecap="round" stroke-linejoin="round"/>
<path d="M344.515 80.5909C347.314 86.636 347.126 93.9772 344.032 99.869" stroke="#FF4440" stroke-miterlimit="10" stroke-linecap="round" stroke-linejoin="round"/>
<path d="M253.759 80.5438C252.548 80.1903 251.418 81.5101 251.289 82.7709C251.16 84.0318 251.642 85.2808 251.724 86.5417C251.807 87.8026 251.265 89.3226 250.019 89.5819C250.701 89.3462 251.43 89.9236 251.654 90.6071C251.877 91.2905 251.736 92.0329 251.654 92.7517C251.489 94.1422 251.548 95.6387 252.324 96.7935C253.101 97.9483 254.806 98.5728 255.959 97.7951" stroke="#F7D36F" stroke-miterlimit="10" stroke-linecap="round" stroke-linejoin="round"/>
<path d="M245.62 80.9916C243.456 86.1764 243.432 92.2214 245.561 97.418" stroke="#F7D36F" stroke-miterlimit="10" stroke-linecap="round" stroke-linejoin="round"/>
<path d="M241.244 80.5909C238.444 86.636 238.632 93.9772 241.726 99.869" stroke="#FF4440" stroke-miterlimit="10" stroke-linecap="round" stroke-linejoin="round"/>
<path d="M414.013 219.497L408.049 225.825L414.013 230.055" stroke="#F7D36F" stroke-miterlimit="10" stroke-linecap="round" stroke-linejoin="round"/>
<path d="M409.095 219.497L403.131 225.825L409.095 230.055" stroke="#F7D36F" stroke-miterlimit="10" stroke-linecap="round" stroke-linejoin="round"/>
<path d="M392.945 224.776C392.945 227.498 394.357 229.701 396.11 229.701C397.851 229.701 399.274 227.498 399.274 224.776C399.274 222.054 397.862 219.85 396.11 219.85C394.357 219.85 392.945 222.054 392.945 224.776Z" stroke="#FF4440" stroke-miterlimit="10" stroke-linecap="round" stroke-linejoin="round"/>
<path d="M385.569 219.85V229.701" stroke="#F7D36F" stroke-miterlimit="10" stroke-linecap="round" stroke-linejoin="round"/>
<path d="M381.005 220.204H375.382V229.348H381.005V220.204Z" fill="#1C1C1B"/>
<path d="M371.17 220.204H362.747V229.348H371.17V220.204Z" stroke="#FF4440" stroke-miterlimit="10" stroke-linecap="round" stroke-linejoin="round"/>
<path d="M358.878 220.204H349.396V229.348H358.878V220.204Z" fill="#1C1C1B"/>
<path d="M343.044 216.127C341.844 215.773 340.739 217.081 340.609 218.33C340.492 219.579 340.962 220.793 341.044 222.042C341.127 223.291 340.586 224.776 339.362 225.035C340.033 224.8 340.762 225.377 340.974 226.049C341.186 226.72 341.056 227.451 340.974 228.158C340.809 229.525 340.868 231.01 341.633 232.141C342.409 233.284 344.068 233.885 345.22 233.119" stroke="black" stroke-miterlimit="10" stroke-linecap="round" stroke-linejoin="round"/>
<path d="M335.021 216.681C332.881 221.783 332.857 227.745 334.963 232.86" stroke="black" stroke-miterlimit="10" stroke-linecap="round" stroke-linejoin="round"/>
<path d="M420.141 216.127C421.341 215.773 422.447 217.081 422.576 218.33C422.694 219.579 422.223 220.793 422.141 222.042C422.059 223.291 422.6 224.776 423.823 225.035C423.153 224.8 422.423 225.377 422.211 226.049C422 226.72 422.129 227.451 422.211 228.158C422.376 229.525 422.317 231.01 421.553 232.141C420.776 233.284 419.118 233.885 417.965 233.119" stroke="black" stroke-miterlimit="10" stroke-linecap="round" stroke-linejoin="round"/>
<path d="M100.836 92.4335C100.142 93.3055 99.5538 94.2482 99.048 95.2145C99.1421 95.238 99.2479 95.2498 99.342 95.2734C100.836 95.7565 101.671 97.3709 101.201 98.8674C100.742 100.364 99.1538 101.177 97.6599 100.694C97.554 100.659 97.4599 100.611 97.3658 100.564C97.2129 101.672 97.1541 102.791 97.2129 103.899C97.307 103.864 97.4128 103.828 97.5187 103.805C99.048 103.475 100.554 104.465 100.907 106.008C101.248 107.552 100.295 109.06 98.7656 109.378C98.648 109.402 98.5304 109.402 98.4127 109.414C98.8245 110.451 99.3303 111.464 99.9537 112.43C100.024 112.336 100.095 112.254 100.189 112.171C101.342 111.122 103.13 111.217 104.189 112.383C105.247 113.55 105.177 115.353 104.024 116.402C103.918 116.496 103.812 116.566 103.706 116.637C104.6 117.368 105.553 117.992 106.553 118.523C106.577 118.393 106.588 118.263 106.635 118.122C107.094 116.625 108.682 115.812 110.176 116.295C111.67 116.779 112.505 118.393 112.035 119.889C111.988 120.031 111.929 120.161 111.858 120.29C112.988 120.467 114.117 120.538 115.258 120.502C115.211 120.373 115.152 120.231 115.117 120.09C114.776 118.546 115.728 117.038 117.258 116.72C118.787 116.39 120.293 117.38 120.646 118.923C120.681 119.076 120.693 119.23 120.704 119.383C121.751 118.982 122.763 118.464 123.739 117.839C123.622 117.745 123.504 117.651 123.41 117.533C122.351 116.366 122.422 114.563 123.575 113.515C124.727 112.466 126.516 112.56 127.574 113.727C127.68 113.844 127.774 113.974 127.857 114.104C128.574 113.196 129.186 112.23 129.692 111.228C129.55 111.205 129.398 111.181 129.256 111.134C127.762 110.651 126.927 109.037 127.398 107.54C127.857 106.044 129.445 105.231 130.939 105.714C131.08 105.761 131.221 105.832 131.35 105.902C131.503 104.771 131.55 103.628 131.491 102.473C131.362 102.52 131.233 102.567 131.091 102.603C129.562 102.933 128.057 101.943 127.704 100.399C127.362 98.8556 128.315 97.3473 129.845 97.0292C129.986 96.9938 130.127 96.9938 130.256 96.982C129.833 95.9333 129.315 94.9199 128.68 93.9536C128.598 94.0479 128.527 94.154 128.421 94.2364C127.268 95.2852 125.48 95.1909 124.422 94.0243C123.363 92.8577 123.433 91.0548 124.586 90.0061C124.68 89.9236 124.786 89.8529 124.88 89.7822C123.986 89.0634 123.034 88.4507 122.045 87.944C122.022 88.0618 122.01 88.1678 121.975 88.2857C121.516 89.7822 119.928 90.5953 118.434 90.1122C116.94 89.629 116.105 88.0147 116.575 86.5181C116.611 86.4121 116.658 86.306 116.705 86.2118C115.599 86.0468 114.493 85.9879 113.388 86.035C113.423 86.1293 113.458 86.2235 113.482 86.3296C113.823 87.8733 112.87 89.3816 111.341 89.6997C109.811 90.0297 108.306 89.0398 107.953 87.4962C107.929 87.3901 107.929 87.2841 107.918 87.178C106.906 87.5787 105.918 88.0736 104.988 88.6863C105.059 88.757 105.141 88.8042 105.2 88.8866C106.259 90.0532 106.188 91.8561 105.036 92.9049C103.883 93.9536 102.095 93.8594 101.036 92.6928C100.942 92.6103 100.895 92.5278 100.836 92.4335ZM109.012 97.418C112.188 94.5075 117.14 94.7785 120.069 98.019C122.998 101.26 122.798 106.244 119.622 109.155C116.446 112.065 111.494 111.794 108.565 108.554C105.635 105.313 105.835 100.329 109.012 97.418Z" fill="#ABC8F4"/>
<path d="M107.471 95.7212C111.564 91.974 117.963 92.3157 121.74 96.4989C125.527 100.682 125.269 107.116 121.175 110.863C117.081 114.61 110.682 114.269 106.906 110.085C103.118 105.902 103.377 99.4684 107.471 95.7212Z" stroke="#6A89B8" stroke-width="0.5" stroke-miterlimit="10" stroke-linecap="round" stroke-linejoin="round"/>
<path d="M58.1819 108.4C57.0762 109.72 56.1116 111.122 55.2999 112.595C55.4528 112.631 55.594 112.654 55.7469 112.713C58.0173 113.538 59.2289 116.06 58.4407 118.334C57.6526 120.608 55.1705 121.787 52.8884 120.962C52.7237 120.903 52.5826 120.82 52.4414 120.75C52.1473 122.447 52.0062 124.167 52.0415 125.887C52.1944 125.84 52.3473 125.781 52.512 125.758C54.8764 125.334 57.1585 126.924 57.6173 129.316C58.0761 131.709 56.5233 133.983 54.1589 134.407C53.9706 134.442 53.7942 134.442 53.606 134.454C54.1824 136.08 54.9235 137.659 55.8293 139.179C55.9469 139.05 56.0645 138.908 56.2057 138.791C58.029 137.235 60.7817 137.471 62.358 139.333C63.9342 141.194 63.7343 143.964 61.9109 145.519C61.7463 145.66 61.5816 145.766 61.4051 145.872C62.7461 147.039 64.193 148.052 65.687 148.913C65.7223 148.712 65.7576 148.512 65.8282 148.312C66.6163 146.037 69.0984 144.859 71.3805 145.684C73.6508 146.509 74.8624 149.031 74.0743 151.305C74.0037 151.517 73.8979 151.717 73.792 151.918C75.5212 152.259 77.2739 152.424 79.0149 152.412C78.9443 152.2 78.862 151.988 78.8267 151.764C78.3797 149.372 79.9207 147.098 82.2852 146.674C84.6496 146.25 86.9317 147.84 87.3905 150.232C87.4375 150.48 87.4493 150.716 87.4493 150.951C89.0844 150.374 90.6725 149.643 92.2017 148.724C92.0252 148.571 91.8488 148.418 91.6959 148.241C90.1196 146.379 90.3196 143.61 92.1429 142.055C93.9662 140.499 96.7188 140.735 98.2951 142.597C98.4598 142.785 98.5892 142.985 98.7069 143.198C99.8597 141.842 100.848 140.381 101.683 138.849C101.459 138.802 101.236 138.755 101.012 138.684C98.7421 137.86 97.5305 135.338 98.3187 133.064C99.1068 130.789 101.589 129.611 103.871 130.436C104.094 130.518 104.294 130.624 104.494 130.742C104.789 129.01 104.918 127.243 104.871 125.475C104.671 125.546 104.471 125.616 104.247 125.652C101.883 126.076 99.6009 124.485 99.1421 122.093C98.6833 119.701 100.236 117.427 102.601 117.002C102.812 116.967 103.024 116.955 103.248 116.955C102.648 115.317 101.895 113.727 100.965 112.207C100.836 112.348 100.718 112.501 100.565 112.631C98.7422 114.186 95.9895 113.951 94.4132 112.089C92.8369 110.227 93.0369 107.458 94.8602 105.902C95.0132 105.773 95.1661 105.678 95.3308 105.572C93.9897 104.429 92.5546 103.428 91.0606 102.591C91.0254 102.768 91.0018 102.933 90.943 103.11C90.1549 105.384 87.6728 106.562 85.3907 105.737C83.1204 104.912 81.9087 102.391 82.6969 100.116C82.7557 99.9515 82.838 99.7983 82.9204 99.6451C81.2382 99.327 79.5208 99.1856 77.8151 99.1974C77.8621 99.3506 77.9209 99.492 77.9562 99.6569C78.415 102.049 76.8622 104.323 74.4978 104.747C72.1333 105.172 69.8512 103.581 69.3925 101.189C69.3572 101.024 69.3572 100.871 69.3454 100.706C67.7691 101.271 66.2281 101.99 64.7577 102.874C64.8636 102.98 64.9812 103.074 65.0753 103.18C66.6516 105.042 66.4516 107.811 64.6283 109.367C62.805 110.922 60.0523 110.686 58.476 108.825C58.3466 108.671 58.2643 108.53 58.1819 108.4ZM66.8045 112.077C74.2272 105.714 85.4495 106.704 91.8606 114.269C98.2834 121.834 97.4599 133.123 90.0372 139.486C82.6145 145.849 71.3922 144.859 64.9812 137.294C58.5701 129.729 59.3818 118.44 66.8045 112.077Z" fill="#ABC8F4"/>
<path d="M87.7192 143.952C97.6005 138.932 101.471 126.689 96.3536 116.661C91.2247 106.633 79.0261 102.556 69.1331 107.576C59.2518 112.595 55.3699 124.839 60.4987 134.867C65.6276 144.894 77.838 148.972 87.7192 143.952ZM66.3922 131.885C62.9455 125.145 65.557 116.92 72.1916 113.55C78.8379 110.18 87.037 112.914 90.4719 119.654C93.9186 126.394 91.3071 134.619 84.6725 137.989C78.038 141.359 69.8271 138.626 66.3922 131.885Z" fill="#ABC8F4"/>
<path d="M64.2516 132.969C60.205 125.039 63.2635 115.365 71.0862 111.393C78.9088 107.422 88.5548 110.651 92.6132 118.581C96.6598 126.512 93.6013 136.186 85.7904 140.157C77.9678 144.117 68.31 140.9 64.2516 132.969Z" stroke="#6A89B8" stroke-width="0.5" stroke-miterlimit="10" stroke-linecap="round" stroke-linejoin="round"/>
<path d="M377.452 160.307C377.37 154.828 382.099 150.598 387.275 150.845C389.075 150.928 390.733 151.529 392.109 152.483C394.262 150.009 397.485 148.512 401.014 148.677C405.849 148.913 410.543 152.189 410.931 156.69C415.672 158.045 419.248 162.452 419.001 167.59C418.848 170.771 417.354 173.564 415.083 175.449C415.66 177.076 415.601 178.996 414.554 180.905C413.989 181.931 413.107 182.755 412.06 183.25C410.131 184.158 408.308 184.11 406.767 183.51L406.649 192.394C406.637 192.925 405.955 193.137 405.649 192.701L401.014 185.996C396.697 187.763 392.815 185.112 392.533 181.176C391.38 181.754 390.086 182.048 388.71 181.989C384.746 181.801 381.628 178.678 381.322 174.813C379.158 176.109 376.335 176.38 373.523 174.966C371.971 174.189 370.747 172.834 370.135 171.207C367.959 165.457 372.171 160.225 377.452 160.307Z" fill="#4C45AB"/>
<path d="M238.15 265.995L243.867 458.705" stroke="#0464F4" stroke-width="0.5" stroke-miterlimit="10" stroke-linecap="round" stroke-linejoin="round"/>
<path d="M290.58 415.023C289.698 415.33 288.815 415.636 287.945 415.931C272.276 421.21 256.395 426.536 239.95 427.62C226.411 428.516 212.871 426.501 199.437 424.497C184.062 422.2 169.111 421.893 165.441 404.241C163.406 394.473 162.712 384.409 163.382 374.44C163.747 368.949 164.606 363.269 167.617 358.733C169.405 356.034 171.852 353.901 174.028 351.533C192.097 331.984 184.156 303.42 199.366 284.319C213.894 266.078 238.962 261.694 259.207 271.899C272.076 278.38 283.687 289.94 285.804 304.976C288.215 322.086 287.486 338.842 298.332 353.548C301.002 357.166 304.225 360.394 306.26 364.436C312.507 376.832 312.33 400.683 300.814 409.839C297.803 412.254 294.227 413.739 290.58 415.023Z" stroke="#0464F4" stroke-width="0.5" stroke-miterlimit="10" stroke-linecap="round" stroke-linejoin="round"/>
<path d="M198.354 82.2289C198.295 72.4838 189.861 64.7655 179.932 65.8731C171.839 66.7805 165.746 73.2851 165.322 81.4394C165.04 86.9659 167.451 91.915 171.357 95.1202C173.851 97.1706 175.521 100.034 175.874 103.239L176.58 109.673C176.733 111.087 177.933 112.159 179.356 112.148L184.638 112.112C186.061 112.1 187.249 111.016 187.39 109.602L188.026 103.168C188.343 99.9751 189.955 97.0881 192.413 95.0377C196.06 91.974 198.377 87.3665 198.354 82.2289Z" fill="#F6B500"/>
<path d="M179.451 106.409C178.287 100.977 177.158 95.5327 175.805 90.1475C175.087 87.2841 171.146 78.847 177.463 79.825C178.934 80.0489 180.181 81.2862 180.428 82.7474C180.557 83.5015 180.416 84.3382 179.898 84.9038C179.381 85.4694 178.463 85.6697 177.828 85.2455C177.416 84.9627 177.181 84.4678 177.11 83.9729C176.911 82.6531 177.71 81.3451 178.781 80.5674C180.157 79.5658 182.016 78.4345 183.769 79.1416C184.757 79.5304 185.404 80.4967 185.804 81.4747C186.074 82.1464 186.251 82.8888 186.051 83.584C185.851 84.2792 185.18 84.8802 184.463 84.7742C183.898 84.6917 183.463 84.1968 183.31 83.6429C183.157 83.0891 183.251 82.5117 183.427 81.9696C183.839 80.7206 184.757 79.5776 186.004 79.1651C187.251 78.7527 188.815 79.2476 189.403 80.426C189.791 81.2155 189.721 82.1346 189.603 83.0066C189.074 87.0955 187.756 90.8781 187.015 94.9081C186.333 98.62 185.651 102.344 184.968 106.055" stroke="#FFDB76" stroke-width="0.5" stroke-miterlimit="10" stroke-linecap="round" stroke-linejoin="round"/>
<path d="M156.383 78.0574C159.371 78.4699 158.406 78.3402 161.441 78.7645" stroke="#F6B500" stroke-width="0.5" stroke-miterlimit="10" stroke-linecap="round" stroke-linejoin="round"/>
<path d="M160.829 65.7317L164.699 69.255" stroke="#F6B500" stroke-width="0.5" stroke-miterlimit="10" stroke-linecap="round" stroke-linejoin="round"/>
<path d="M176.827 57.7542C177.074 59.0504 177.333 61.195 177.592 62.4912" stroke="#F6B500" stroke-width="0.5" stroke-miterlimit="10" stroke-linecap="round" stroke-linejoin="round"/>
<path d="M187.674 57.2946C187.309 60.0873 187.062 61.9963 186.909 63.1275" stroke="#F6B500" stroke-width="0.5" stroke-miterlimit="10" stroke-linecap="round" stroke-linejoin="round"/>
<path d="M203.284 68.4891C200.719 70.292 200.896 70.1624 198.261 72.0124" stroke="#F6B500" stroke-width="0.5" stroke-miterlimit="10" stroke-linecap="round" stroke-linejoin="round"/>
<path d="M202.189 79.8957C205.283 80.096 204.519 80.0489 207.624 80.2492" stroke="#F6B500" stroke-width="0.5" stroke-miterlimit="10" stroke-linecap="round" stroke-linejoin="round"/>
<path d="M182.003 114.328C178.416 114.351 175.498 111.452 175.475 107.858L175.463 105.042L188.438 104.971L188.45 107.788C188.473 111.382 185.579 114.316 182.003 114.328Z" fill="#3E2D00"/>
<path d="M178.345 69.585C175.028 70.4098 172.087 72.637 170.381 75.6064C168.676 78.5759 168.241 82.2407 169.205 85.5283" stroke="#FFD459" stroke-width="0.5" stroke-miterlimit="10" stroke-linecap="round" stroke-linejoin="round"/>
<defs>
<clipPath id="clip0_271_445">
<rect width="381" height="332" fill="white" transform="translate(130.411)"/>
</clipPath>
</defs>
</svg>
