<svg width="300" height="292" viewBox="0 0 300 292" fill="none" xmlns="http://www.w3.org/2000/svg">
<g clip-path="url(#clip0_275_4248)">
<path d="M191.346 65.4558H175.383V201.389C175.383 203.522 174.963 205.633 174.146 207.604C173.329 209.574 172.131 211.365 170.621 212.873C169.111 214.381 167.319 215.577 165.346 216.393C163.374 217.209 161.259 217.629 159.124 217.629H37.0859V217.785C37.0859 219.918 37.5065 222.03 38.3236 224C39.1407 225.97 40.3383 227.761 41.8481 229.269C43.3579 230.777 45.1503 231.973 47.1229 232.789C49.0956 233.605 51.2098 234.026 53.345 234.026H191.346C193.481 234.026 195.595 233.605 197.568 232.789C199.54 231.973 201.333 230.777 202.842 229.269C204.352 227.761 205.55 225.97 206.367 224C207.184 222.03 207.605 219.918 207.605 217.785V81.6965C207.605 77.3892 205.892 73.2583 202.842 70.2126C199.793 67.1669 195.658 65.4558 191.346 65.4558Z" fill="#F2F2F2"/>
<path d="M267.013 281.474C267.296 281.487 267.575 281.413 267.814 281.262C268.053 281.111 268.24 280.89 268.349 280.629C268.458 280.369 268.485 280.081 268.425 279.805C268.364 279.529 268.221 279.278 268.013 279.086L267.918 278.71C267.931 278.68 267.943 278.65 267.956 278.62C268.241 277.949 268.718 277.376 269.327 276.974C269.937 276.573 270.651 276.36 271.382 276.362C272.112 276.365 272.825 276.583 273.431 276.99C274.038 277.396 274.511 277.972 274.79 278.646C275.908 281.335 277.331 284.028 277.682 286.872C277.836 288.128 277.771 289.402 277.489 290.637C280.114 284.917 281.478 278.699 281.486 272.406C281.487 270.827 281.399 269.25 281.223 267.68C281.078 266.394 280.877 265.116 280.619 263.848C279.212 256.967 276.19 250.518 271.803 245.029C269.68 243.872 267.963 242.093 266.883 239.931C266.492 239.153 266.216 238.324 266.062 237.467C266.302 237.499 266.966 233.855 266.785 233.631C267.119 233.126 267.716 232.874 268.081 232.38C269.894 229.925 272.392 230.354 273.696 233.69C276.482 235.095 276.509 237.424 274.799 239.664C273.712 241.089 273.562 243.017 272.608 244.543C272.706 244.669 272.809 244.79 272.907 244.916C274.701 247.221 276.265 249.696 277.576 252.305C277.257 249.382 277.638 246.424 278.687 243.676C279.75 241.115 281.742 238.958 283.496 236.744C283.96 236.15 284.59 235.706 285.307 235.469C286.023 235.231 286.794 235.212 287.522 235.412C288.249 235.613 288.901 236.024 289.395 236.594C289.889 237.165 290.202 237.869 290.295 238.617C290.299 238.649 290.302 238.682 290.306 238.715C290.045 238.862 289.79 239.017 289.541 239.182C289.227 239.391 288.984 239.69 288.844 240.04C288.703 240.389 288.672 240.773 288.753 241.141C288.835 241.509 289.026 241.843 289.301 242.101C289.576 242.358 289.922 242.527 290.295 242.584L290.333 242.59C290.24 243.528 290.076 244.457 289.842 245.371C292.093 254.064 287.234 257.23 280.297 257.373C280.144 257.451 279.994 257.53 279.841 257.604C281.158 261.333 281.985 265.217 282.299 269.159C282.477 271.484 282.467 273.821 282.268 276.144L282.28 276.062C282.782 273.478 284.162 271.146 286.187 269.461C289.193 266.994 293.441 266.085 296.685 264.102C297.03 263.881 297.43 263.763 297.84 263.762C298.25 263.761 298.651 263.877 298.997 264.097C299.343 264.316 299.619 264.63 299.792 265C299.965 265.371 300.028 265.784 299.975 266.189L299.961 266.276C299.478 266.473 299.007 266.699 298.552 266.955C298.291 267.101 298.036 267.257 297.787 267.422C297.473 267.631 297.23 267.93 297.09 268.28C296.949 268.629 296.918 269.013 296.999 269.381C297.081 269.748 297.272 270.083 297.547 270.34C297.822 270.598 298.168 270.766 298.541 270.824L298.579 270.83C298.607 270.834 298.63 270.838 298.658 270.842C297.832 272.812 296.672 274.626 295.23 276.203C293.823 283.792 287.779 284.512 281.314 282.302H281.31C280.6 285.381 279.573 288.378 278.243 291.245H267.288C267.248 291.123 267.213 290.998 267.178 290.876C268.192 290.94 269.21 290.879 270.209 290.696C269.396 289.7 268.583 288.695 267.771 287.699C267.752 287.681 267.735 287.661 267.72 287.64C267.307 287.131 266.891 286.625 266.479 286.115L266.478 286.114C266.456 284.551 266.636 282.992 267.013 281.475L267.013 281.474Z" fill="#F2F2F2"/>
<path d="M146.349 46.9652C146.749 47.5705 147.276 48.0818 147.893 48.4637C148.51 48.8456 149.203 49.0891 149.924 49.1772C150.645 49.2653 151.376 49.196 152.067 48.9741C152.759 48.7521 153.393 48.3828 153.928 47.8917L176.704 58.1561L181.096 52.5612L153.954 40.5677C153.06 39.7308 151.889 39.2507 150.664 39.2184C149.439 39.186 148.244 39.6038 147.307 40.3923C146.369 41.1809 145.754 42.2856 145.578 43.497C145.401 44.7084 145.676 45.9424 146.349 46.9652H146.349Z" fill="#FFCBA5"/>
<path d="M244.097 53.3656L246.356 66.1522C246.461 66.7488 246.441 67.3607 246.295 67.9488C246.15 68.5369 245.883 69.0881 245.512 69.5671C245.141 70.0461 244.673 70.4422 244.14 70.7301C243.606 71.0179 243.018 71.1912 242.413 71.2387L204.028 74.2538L158.908 54.0833L164.297 43.8648L203.466 56.2543L244.097 53.3656Z" fill="#6A00BF"/>
<path d="M154.26 44.2018H16.2591C7.27944 44.2018 0 51.4729 0 60.4424V196.531C0 205.5 7.27944 212.771 16.2591 212.771H154.26C163.239 212.771 170.519 205.5 170.519 196.531V60.4424C170.519 51.4729 163.239 44.2018 154.26 44.2018Z" fill="#F2F2F2"/>
<path d="M16.2591 47.5416C14.5631 47.5416 12.8836 47.8753 11.3166 48.5236C9.74966 49.1719 8.32588 50.1222 7.12658 51.3201C5.92727 52.5181 4.97592 53.9402 4.32686 55.5054C3.67781 57.0706 3.34375 58.7482 3.34375 60.4423V196.531C3.34375 199.952 4.70447 203.234 7.12658 205.653C9.54868 208.072 12.8338 209.432 16.2591 209.432H104.334C112.587 209.432 120.758 207.808 128.382 204.654C136.007 201.499 142.934 196.876 148.769 191.047C154.605 185.218 159.233 178.299 162.391 170.683C165.549 163.068 167.175 154.905 167.175 146.663V60.4423C167.175 58.7482 166.841 57.0706 166.192 55.5054C165.543 53.9402 164.591 52.5181 163.392 51.3201C162.193 50.1222 160.769 49.1719 159.202 48.5236C157.635 47.8753 155.956 47.5416 154.259 47.5416H16.2591Z" fill="white"/>
<path d="M123.838 88.8422H46.381C45.6703 88.8422 44.9887 88.5601 44.4861 88.0581C43.9835 87.5561 43.7012 86.8753 43.7012 86.1653C43.7012 85.4554 43.9835 84.7745 44.4861 84.2725C44.9887 83.7705 45.6703 83.4885 46.381 83.4885H123.838C124.549 83.4885 125.23 83.7705 125.733 84.2725C126.235 84.7745 126.518 85.4554 126.518 86.1653C126.518 86.8753 126.235 87.5561 125.733 88.0581C125.23 88.5601 124.549 88.8422 123.838 88.8422Z" fill="#F2F2F2"/>
<path d="M123.838 145.925H46.381C45.6703 145.925 44.9887 145.643 44.4861 145.141C43.9835 144.639 43.7012 143.958 43.7012 143.248C43.7012 142.538 43.9835 141.857 44.4861 141.355C44.9887 140.853 45.6703 140.571 46.381 140.571H123.838C124.549 140.571 125.23 140.853 125.733 141.355C126.235 141.857 126.518 142.538 126.518 143.248C126.518 143.958 126.235 144.639 125.733 145.141C125.23 145.643 124.549 145.925 123.838 145.925Z" fill="#F2F2F2"/>
<path d="M155.29 117.402H14.926C14.2152 117.402 13.5336 117.12 13.031 116.618C12.5284 116.116 12.2461 115.435 12.2461 114.725C12.2461 114.015 12.5284 113.334 13.031 112.832C13.5336 112.33 14.2152 112.048 14.926 112.048H155.29C156.001 112.048 156.682 112.33 157.185 112.832C157.687 113.334 157.97 114.015 157.97 114.725C157.97 115.435 157.687 116.116 157.185 116.618C156.682 117.12 156.001 117.402 155.29 117.402Z" fill="#F2F2F2"/>
<path d="M239.247 109.724L225.264 139.48L279.053 134.038L267.825 105.473L239.247 109.724Z" fill="#FFCBA5"/>
<path d="M251.754 280.749L246.654 280.705L244.396 260.598L251.923 260.662L251.754 280.749Z" fill="#FFCBA5"/>
<path d="M235.418 288.849C235.414 289.453 235.649 290.034 236.073 290.465C236.497 290.895 237.074 291.14 237.679 291.146L247.818 291.231L249.594 287.637L250.245 291.249L254.071 291.284L253.105 278.4L251.774 278.311L246.345 277.937L244.593 277.82L244.562 281.466L236.417 286.984C236.112 287.191 235.862 287.469 235.688 287.794C235.514 288.118 235.421 288.481 235.418 288.849Z" fill="#2F2E41"/>
<path d="M195.314 280.772L190.451 279.233L194.208 259.352L201.384 261.621L195.314 280.772Z" fill="#FFCBA5"/>
<path d="M177.317 283.72C177.135 284.296 177.189 284.921 177.467 285.457C177.746 285.993 178.226 286.397 178.802 286.58L188.469 289.636L191.223 286.722L190.784 290.366L194.431 291.522L197.297 278.923L196.051 278.448L190.971 276.497L189.331 275.871L188.229 279.347L178.82 282.231C178.468 282.339 178.147 282.531 177.885 282.791C177.623 283.05 177.428 283.369 177.317 283.72Z" fill="#2F2E41"/>
<path d="M276.605 125.67L227.698 134.622C227.698 134.622 219.853 140.483 221.951 142.582C224.05 144.681 224.375 144.356 222.997 145.733C221.618 147.11 218.637 148.951 218.608 150.156C218.578 151.361 196.692 205.407 196.692 205.407C196.692 205.407 199.124 204.193 197.3 206.015C195.476 207.836 195.476 209.342 195.476 209.342L186.965 266.741L200.788 267.553L214.323 215.224L244.513 166.337C244.513 166.337 247.509 209.932 247.634 212.831C247.76 215.731 249.584 212.087 247.76 215.731C245.936 219.374 244.72 216.945 245.936 219.374C247.152 221.803 241.556 271.255 241.556 271.255H254.173L281.233 168.755C281.233 168.755 290.86 139.451 276.605 125.67Z" fill="#2F2E41"/>
<path d="M262.197 43.683L242.606 41.6497L237.53 48.2319L231.617 51.3777C229.115 52.7089 227.05 54.7319 225.668 57.2048C224.286 59.6776 223.647 62.4956 223.826 65.3218L230.737 105.473C230.737 105.473 224.9 118.602 228.913 121.869C232.926 125.137 225.81 133.229 234.384 129.156C242.959 125.083 279.981 129.764 279.981 129.764L272.077 107.295L277.981 85.2166L278.631 66.7041C278.753 63.2447 277.725 59.8424 275.708 57.0275C273.691 54.2126 270.799 52.1432 267.482 51.1419L266.656 50.8927L262.197 43.683Z" fill="#6A00BF"/>
<path d="M289.168 28.681C289.296 34.1967 287.233 39.5376 284.268 44.2287C283.387 41.4901 281.803 38.9976 280.152 36.6216C280.984 41.7616 280.098 47.0324 277.629 51.6182C277.542 51.6804 277.452 51.7382 277.359 51.7912C274.942 53.2432 271.879 53.8313 269.265 52.7826C274.666 46.9671 275.353 37.3316 270.825 30.8085C269.543 28.9576 267.885 27.3206 267.091 25.2141C265.837 21.8533 267.042 18.1528 267.802 14.6487C268.513 11.3875 268.638 7.5066 266.447 5.11652C266.681 4.78251 267 4.51664 267.371 4.34615C267.741 4.17566 268.151 4.10668 268.557 4.14628C269.907 4.33683 270.89 5.50937 271.517 6.71701C272.143 7.92461 272.556 9.26305 273.428 10.3061C275.044 12.2585 277.796 12.72 280.115 13.749C285.731 16.2476 289.033 22.5435 289.168 28.681Z" fill="#2F2E41"/>
<path d="M144.48 291.277C144.48 291.372 144.499 291.466 144.535 291.554C144.571 291.642 144.625 291.722 144.692 291.789C144.759 291.856 144.839 291.909 144.927 291.946C145.015 291.982 145.109 292 145.204 292H299.192C299.384 292 299.568 291.924 299.703 291.788C299.839 291.653 299.915 291.469 299.915 291.277C299.915 291.086 299.839 290.902 299.703 290.766C299.568 290.631 299.384 290.555 299.192 290.555H145.204C145.109 290.554 145.015 290.573 144.927 290.609C144.839 290.645 144.759 290.699 144.692 290.766C144.625 290.833 144.571 290.913 144.535 291C144.499 291.088 144.48 291.182 144.48 291.277Z" fill="#CCCCCC"/>
<path d="M290.38 156.52C293.402 156.52 295.851 154.073 295.851 151.055C295.851 148.036 293.402 145.589 290.38 145.589C287.358 145.589 284.908 148.036 284.908 151.055C284.908 154.073 287.358 156.52 290.38 156.52Z" fill="#6A00BF"/>
<path d="M241.895 25.5273C242.216 24.4054 240.004 31.2637 241.072 31.3875C245.933 31.9446 252.607 34.8448 255.993 36.1978C256.145 36.1801 256.298 36.1624 256.446 36.1403C256.809 36.1005 257.163 36.043 257.513 35.9767C265.397 34.4866 268.429 22.3892 268.429 22.2786C268.429 21.7348 267.123 6.79776 265.064 6.57672C264.523 6.51811 263.98 6.48859 263.436 6.48828H258.328C257.271 6.26076 256.199 6.10565 255.121 6.02402H255.112C244.829 5.2414 236.72 11.5023 237.478 19.1206C237.483 19.1294 237.491 19.1383 237.496 19.1471C237.716 19.4743 237.909 19.7838 238.079 20.08C238.245 20.3586 238.384 20.6239 238.505 20.8759C239.442 22.8214 237.033 25.2694 238.631 25.7263C240.755 26.3341 233.042 46.3085 241.453 46.3085C237.362 47.4704 241.01 28.6224 241.895 25.5273Z" fill="#2F2E41"/>
<path d="M251.075 37.2475C257.754 37.2475 263.169 31.8389 263.169 25.167C263.169 18.495 257.754 13.0864 251.075 13.0864C244.395 13.0864 238.98 18.495 238.98 25.167C238.98 31.8389 244.395 37.2475 251.075 37.2475Z" fill="#FFCBA5"/>
<path d="M237.479 19.7794C237.68 19.8855 237.878 19.9827 238.079 20.08C238.29 20.1817 238.501 20.2834 238.712 20.3762C242.762 22.2112 246.058 22.4146 248.058 19.7794C248.112 18.3927 248.424 17.0283 248.978 15.7557C248.88 17.1778 249.255 18.5923 250.045 19.7794H254.072C258.221 22.5295 260.351 22.8169 257.472 31.8457C256.669 34.3615 253.477 49.0012 254.733 51.1722C255.096 51.1324 258.961 35.0974 259.311 35.0311C267.195 33.5411 272.204 20.5664 271.563 19.8324C271.566 17.7452 271.086 15.6856 270.159 13.8147C268.987 11.4445 267.16 9.45904 264.894 8.09326C263.543 7.43906 262.135 6.91066 260.687 6.51477C260.651 6.50592 260.62 6.49707 260.584 6.48824C260.14 6.36885 259.687 6.25832 259.234 6.16546C258.299 5.9681 257.352 5.8249 256.4 5.73658C256.333 5.73215 256.265 5.72772 256.203 5.72772C255.822 5.72861 255.449 5.83089 255.122 6.02399C255.117 6.02399 255.117 6.02839 255.113 6.02839C254.879 6.16497 254.674 6.34686 254.512 6.56338C254.225 6.9277 254.07 7.37797 254.072 7.84121H249.587C249.422 7.84121 249.256 7.84562 249.09 7.85446C246.096 7.95663 243.249 9.17083 241.105 11.2594C238.961 13.3481 237.674 16.1608 237.496 19.1471C237.483 19.3593 237.479 19.5671 237.479 19.7794Z" fill="#2F2E41"/>
<path d="M263.921 15.9175C268.321 15.9175 271.889 12.3542 271.889 7.95875C271.889 3.56325 268.321 0 263.921 0C259.52 0 255.953 3.56325 255.953 7.95875C255.953 12.3542 259.52 15.9175 263.921 15.9175Z" fill="#2F2E41"/>
<path d="M290.443 153.308C290.832 152.696 291.083 152.006 291.178 151.287C291.274 150.568 291.212 149.837 290.998 149.144C290.783 148.452 290.42 147.814 289.934 147.275C289.448 146.736 288.85 146.309 288.183 146.023L288.223 121.064L281.314 119.356L281.484 149.001C281.086 150.159 281.127 151.422 281.6 152.552C282.073 153.681 282.943 154.598 284.048 155.129C285.152 155.66 286.413 155.768 287.592 155.432C288.77 155.097 289.785 154.341 290.443 153.308V153.308Z" fill="#FFCBA5"/>
<path d="M256.229 61.623L266.98 54.3247C267.481 53.9842 268.049 53.7523 268.645 53.6437C269.242 53.5352 269.855 53.5525 270.444 53.6945C271.034 53.8364 271.587 54.1 272.069 54.4682C272.55 54.8364 272.949 55.3011 273.24 55.8325L291.724 89.571L291.795 138.948L280.255 138.225L275.518 97.4601L256.229 61.623Z" fill="#6A00BF"/>
<path d="M173.658 173.602H58.7553C56.2561 173.602 53.8592 174.594 52.092 176.359C50.3248 178.124 49.332 180.518 49.332 183.015C49.332 185.511 50.3248 187.905 52.092 189.67C53.8592 191.435 56.2561 192.427 58.7553 192.427H173.658C176.157 192.427 178.554 191.435 180.321 189.67C182.088 187.905 183.081 185.511 183.081 183.015C183.081 180.518 182.088 178.124 180.321 176.359C178.554 174.594 176.157 173.602 173.658 173.602Z" fill="white"/>
<path d="M173.658 193.034H58.7558C56.0954 193.034 53.5439 191.979 51.6627 190.1C49.7815 188.221 48.7246 185.672 48.7246 183.015C48.7246 180.357 49.7815 177.809 51.6627 175.93C53.5439 174.05 56.0954 172.995 58.7558 172.995H173.658C176.319 172.995 178.87 174.05 180.752 175.93C182.633 177.809 183.69 180.357 183.69 183.015C183.69 185.672 182.633 188.221 180.752 190.1C178.87 191.979 176.319 193.034 173.658 193.034ZM58.7558 174.209C56.4178 174.209 54.1756 175.137 52.5224 176.788C50.8693 178.44 49.9405 180.679 49.9405 183.015C49.9405 185.35 50.8693 187.59 52.5224 189.241C54.1756 190.892 56.4178 191.82 58.7558 191.82H173.658C175.996 191.82 178.239 190.892 179.892 189.241C181.545 187.59 182.474 185.35 182.474 183.015C182.474 180.679 181.545 178.44 179.892 176.788C178.239 175.137 175.996 174.209 173.658 174.209H58.7558Z" fill="#6A00BF"/>
<path d="M180.434 214.679H129.727C129.016 214.679 128.334 214.397 127.832 213.895C127.329 213.393 127.047 212.712 127.047 212.002C127.047 211.292 127.329 210.611 127.832 210.109C128.334 209.607 129.016 209.325 129.727 209.325H180.434C181.144 209.325 181.826 209.607 182.329 210.109C182.831 210.611 183.114 211.292 183.114 212.002C183.114 212.712 182.831 213.393 182.329 213.895C181.826 214.397 181.144 214.679 180.434 214.679Z" fill="#6A00BF"/>
</g>
<defs>
<clipPath id="clip0_275_4248">
<rect width="300" height="292" fill="white"/>
</clipPath>
</defs>
</svg>
