<svg width="79" height="15" viewBox="0 0 79 15" fill="none" xmlns="http://www.w3.org/2000/svg">
<path d="M7.50519 0.712036L9.07679 5.54892L14.1626 5.54892L10.0481 8.53827L11.6197 13.3752L7.50519 10.3858L3.39069 13.3752L4.96229 8.53827L0.847792 5.54892L5.93359 5.54892L7.50519 0.712036Z" fill="#FFC727"/>
<path d="M23.5052 0.712036L25.0768 5.54892L30.1626 5.54892L26.0481 8.53827L27.6197 13.3752L23.5052 10.3858L19.3907 13.3752L20.9623 8.53827L16.8478 5.54892L21.9336 5.54892L23.5052 0.712036Z" fill="#FFC727"/>
<path d="M39.5052 0.712036L41.0768 5.54892L46.1626 5.54892L42.0481 8.53827L43.6197 13.3752L39.5052 10.3858L35.3907 13.3752L36.9623 8.53827L32.8478 5.54892L37.9336 5.54892L39.5052 0.712036Z" fill="#FFC727"/>
<path d="M55.5052 0.712036L57.0768 5.54892L62.1626 5.54892L58.0481 8.53827L59.6197 13.3752L55.5052 10.3858L51.3907 13.3752L52.9623 8.53827L48.8478 5.54892L53.9336 5.54892L55.5052 0.712036Z" fill="#FFC727"/>
<path d="M71.5052 0.712036L73.0768 5.54892L78.1626 5.54892L74.0481 8.53827L75.6197 13.3752L71.5052 10.3858L67.3907 13.3752L68.9623 8.53827L64.8478 5.54892L69.9336 5.54892L71.5052 0.712036Z" fill="#FFC727"/>
</svg>
