<svg width="24" height="24" viewBox="0 0 24 24" fill="none" xmlns="http://www.w3.org/2000/svg">
<path d="M9.29001 15.88L13.17 12L9.29001 8.11999C9.19742 8.02741 9.12399 7.9175 9.07388 7.79653C9.02378 7.67557 8.99799 7.54592 8.99799 7.41499C8.99799 7.28406 9.02378 7.15441 9.07388 7.03345C9.12399 6.91248 9.19742 6.80257 9.29001 6.70999C9.38259 6.61741 9.4925 6.54397 9.61346 6.49386C9.73443 6.44376 9.86408 6.41797 9.99501 6.41797C10.1259 6.41797 10.2556 6.44376 10.3765 6.49386C10.4975 6.54397 10.6074 6.61741 10.7 6.70999L15.29 11.3C15.68 11.69 15.68 12.32 15.29 12.71L10.7 17.3C10.6075 17.3927 10.4976 17.4662 10.3766 17.5164C10.2557 17.5666 10.126 17.5924 9.99501 17.5924C9.86404 17.5924 9.73436 17.5666 9.61338 17.5164C9.49241 17.4662 9.38252 17.3927 9.29001 17.3C8.91001 16.91 8.90001 16.27 9.29001 15.88Z" fill="white"/>
</svg>
