<svg width="1440" height="211" viewBox="0 0 1440 211" fill="none" xmlns="http://www.w3.org/2000/svg">
<path d="M-3 38.6165C-3 38.6165 68.5 83.6165 276 38.6165C483.5 -6.38348 512 -13.8837 650.5 38.6165C789 91.1168 1013.5 83.6165 1118.5 38.6165C1223.5 -6.38341 1442.5 38.6165 1442.5 38.6165" stroke="#7755E2" stroke-width="3"/>
<path d="M6 137.548C6 137.548 46 197.548 133.5 137.548C221 77.5479 259.5 81.5479 321 137.548C382.5 193.548 416 207.048 478 137.548C540 68.0479 634 43.5479 689.5 137.548C745 231.548 812.5 235.048 872.5 137.548C932.5 40.0478 1014.5 69.548 1074 137.548C1133.5 205.548 1171 251.048 1257 137.548C1343 24.0478 1450.5 137.548 1450.5 137.548" stroke="#7755E2" stroke-width="3"/>
<path d="M-2 102.363C-2 102.363 20.5 147.363 202 102.363C383.5 57.363 387.5 166.363 584 102.363C780.5 38.3634 752.5 21.8626 893 102.363C1033.5 182.863 1441.5 102.363 1441.5 102.363" stroke="#7755E2" stroke-width="3"/>
</svg>
