<svg width="792" height="416" viewBox="0 0 792 416" fill="none" xmlns="http://www.w3.org/2000/svg">
<g clip-path="url(#clip0_45_3374)">
<path d="M-124 281C-124 281 -92.5593 134.412 54.3448 147.316C201.249 160.22 206.67 106.441 227.269 17.695C247.868 -71.0507 323.217 -103.513 399.109 -111.113C475 -118.713 475 -168 475 -168" stroke="white" stroke-opacity="0.15"/>
<path d="M-201 241C-201 241 -169.559 94.4121 -22.6552 107.316C124.249 120.22 129.67 66.4407 150.269 -22.305C170.868 -111.051 246.217 -143.513 322.109 -151.113C398 -158.713 398 -208 398 -208" stroke="white" stroke-opacity="0.15"/>
<path d="M-78 321C-78 321 -46.5593 174.412 100.345 187.316C247.249 200.22 252.67 146.441 273.269 57.695C293.868 -31.0507 369.217 -63.5134 445.109 -71.1131C521 -78.7129 521 -128 521 -128" stroke="white" stroke-opacity="0.15"/>
<path d="M-25 362C-25 362 6.44073 215.086 153.345 228.018C300.249 240.951 305.67 187.052 326.269 98.1086C346.868 9.16526 422.217 -23.3697 498.109 -30.9864C574 -38.6031 574 -88 574 -88" stroke="white" stroke-opacity="0.15"/>
<path d="M25 402C25 402 56.4407 255.086 203.345 268.018C350.249 280.951 355.67 227.052 376.269 138.109C396.868 49.1653 472.217 16.6303 548.109 9.01357C624 1.39686 624 -48 624 -48" stroke="white" stroke-opacity="0.15"/>
<path d="M117 442C117 442 148.441 295.086 295.345 308.018C442.249 320.951 447.67 267.052 468.269 178.109C488.868 89.1653 564.217 56.6303 640.109 49.0136C716 41.3969 716 -8 716 -8" stroke="white" stroke-opacity="0.15"/>
<path d="M212 482C212 482 243.441 335.412 390.345 348.316C537.249 361.22 542.67 307.441 563.269 218.695C583.868 129.949 659.217 97.4866 735.109 89.8869C811 82.2871 811 33 811 33" stroke="white" stroke-opacity="0.15"/>
<path d="M325 522C325 522 356.441 375.412 503.345 388.316C650.249 401.22 655.67 347.441 676.269 258.695C696.868 169.949 772.217 137.487 848.109 129.887C924 122.287 924 73 924 73" stroke="white" stroke-opacity="0.15"/>
<path d="M426 562C426 562 457.441 415.412 604.345 428.316C751.249 441.22 756.67 387.441 777.269 298.695C797.868 209.949 873.217 177.487 949.109 169.887C1025 162.287 1025 113 1025 113" stroke="white" stroke-opacity="0.15"/>
</g>
<defs>
<clipPath id="clip0_45_3374">
<rect width="792" height="416" fill="white"/>
</clipPath>
</defs>
</svg>
