<svg width="24" height="24" viewBox="0 0 24 24" fill="none" xmlns="http://www.w3.org/2000/svg">
<path d="M21.9656 6.54385C21.8795 6.19822 21.7108 5.87863 21.474 5.61248C21.2373 5.34634 20.9395 5.14157 20.6063 5.01572C17.4 3.77822 12.2812 3.7876 12 3.7876C11.7188 3.7876 6.6 3.77822 3.39375 5.01572C3.06051 5.14157 2.76275 5.34634 2.52599 5.61248C2.28923 5.87863 2.12054 6.19822 2.03438 6.54385C1.79063 7.47197 1.5 9.17822 1.5 12.0001C1.5 14.822 1.79063 16.5282 2.03438 17.4563C2.12054 17.802 2.28923 18.1216 2.52599 18.3877C2.76275 18.6539 3.06051 18.8586 3.39375 18.9845C6.46875 20.1751 11.2875 20.2126 11.9344 20.2126H12.0656C12.7125 20.2126 17.5313 20.1751 20.6063 18.9845C20.9395 18.8586 21.2373 18.6539 21.474 18.3877C21.7108 18.1216 21.8795 17.802 21.9656 17.4563C22.2094 16.5282 22.5 14.822 22.5 12.0001C22.5 9.17822 22.2094 7.47197 21.9656 6.54385V6.54385ZM15.2062 12.3095L10.7062 15.3095C10.6466 15.3534 10.5741 15.3765 10.5 15.3751C10.4379 15.3728 10.3771 15.3568 10.3219 15.3282C10.262 15.2971 10.2118 15.2499 10.1771 15.192C10.1423 15.1341 10.1243 15.0676 10.125 15.0001V9.0001C10.1243 8.93256 10.1423 8.86615 10.1771 8.80823C10.2118 8.75031 10.262 8.70315 10.3219 8.67197C10.3817 8.64008 10.449 8.62498 10.5167 8.62828C10.5843 8.63159 10.6499 8.65316 10.7062 8.69072L15.2062 11.6907C15.2585 11.7237 15.3016 11.7693 15.3315 11.8234C15.3614 11.8775 15.377 11.9383 15.377 12.0001C15.377 12.0619 15.3614 12.1227 15.3315 12.1768C15.3016 12.2309 15.2585 12.2765 15.2062 12.3095Z" fill="white"/>
</svg>
