<svg width="56" height="48" viewBox="0 0 56 48" fill="none" xmlns="http://www.w3.org/2000/svg">
<path d="M31.8648 48V33.5664C31.8648 24.5035 33.8629 17.1189 37.8592 11.4126C41.9606 5.5944 48.0075 1.79021 56 0V10.9091C52.4244 11.8042 49.585 13.4825 47.4817 15.944C45.3784 18.2937 44.0113 21.1469 43.3803 24.5035H52.8451V48H31.8648ZM0 48V33.5664C0 24.5035 1.99812 17.1189 5.99437 11.4126C10.0958 5.5944 16.0901 1.79021 23.9775 0V10.9091C20.4019 11.8042 17.5624 13.4825 15.4592 15.944C13.3559 18.2937 11.9887 21.1469 11.3577 24.5035H20.8225V48H0Z" fill="#7755E2"/>
</svg>
