<svg width="26" height="26" viewBox="0 0 26 26" fill="none" xmlns="http://www.w3.org/2000/svg">
<path d="M21.185 2.06277C20.5634 2.06277 19.9674 2.30967 19.5279 2.74914C19.0884 3.18862 18.8415 3.78468 18.8415 4.40619C18.8415 5.02771 19.0884 5.62377 19.5279 6.06324C19.9674 6.50272 20.5634 6.74962 21.185 6.74962C21.8065 6.74962 22.4025 6.50272 22.842 6.06324C23.2815 5.62377 23.5284 5.02771 23.5284 4.40619C23.5284 3.78468 23.2815 3.18862 22.842 2.74914C22.4025 2.30967 21.8065 2.06277 21.185 2.06277ZM17.2793 4.40619C17.2791 3.48981 17.6013 2.60256 18.1892 1.89969C18.7772 1.19681 19.5936 0.723059 20.4956 0.561321C21.3976 0.399584 22.3278 0.560159 23.1233 1.01495C23.9189 1.46975 24.5292 2.1898 24.8475 3.04913C25.1658 3.90846 25.1718 4.85235 24.8644 5.71565C24.5571 6.57896 23.956 7.30671 23.1662 7.77157C22.3765 8.23643 21.4485 8.40881 20.5445 8.25855C19.6405 8.10828 18.8182 7.64494 18.2213 6.94959L7.72591 11.8239C7.96719 12.5885 7.96719 13.4089 7.72591 14.1736L18.2213 19.0479C18.8522 18.3141 19.7331 17.8407 20.6931 17.7194C21.6532 17.5981 22.6241 17.8375 23.4177 18.3913C24.2113 18.945 24.7711 19.7736 24.9886 20.7166C25.2061 21.6596 25.0657 22.6497 24.5948 23.495C24.1238 24.3404 23.3558 24.9809 22.4396 25.2923C21.5234 25.6037 20.5242 25.5638 19.6356 25.1805C18.7471 24.7971 18.0325 24.0976 17.6303 23.2174C17.2282 22.3372 17.1671 21.3391 17.4589 20.4164L6.96351 15.5421C6.44395 16.1476 5.75142 16.5795 4.97907 16.7796C4.20672 16.9797 3.39162 16.9385 2.6434 16.6615C1.89518 16.3845 1.24975 15.8849 0.793921 15.2301C0.338097 14.5753 0.09375 13.7966 0.09375 12.9987C0.09375 12.2009 0.338097 11.4222 0.793921 10.7674C1.24975 10.1125 1.89518 9.61302 2.6434 9.336C3.39162 9.05899 4.20672 9.01777 4.97907 9.21789C5.75142 9.418 6.44395 9.84985 6.96351 10.4553L17.4589 5.58103C17.3394 5.20088 17.2789 4.80468 17.2793 4.40619ZM3.99987 10.6553C3.37835 10.6553 2.78229 10.9022 2.34282 11.3417C1.90334 11.7812 1.65645 12.3772 1.65645 12.9987C1.65645 13.6203 1.90334 14.2163 2.34282 14.6558C2.78229 15.0953 3.37835 15.3422 3.99987 15.3422C4.62138 15.3422 5.21744 15.0953 5.65692 14.6558C6.09639 14.2163 6.34329 13.6203 6.34329 12.9987C6.34329 12.3772 6.09639 11.7812 5.65692 11.3417C5.21744 10.9022 4.62138 10.6553 3.99987 10.6553ZM21.185 19.2479C20.5634 19.2479 19.9674 19.4948 19.5279 19.9342C19.0884 20.3737 18.8415 20.9698 18.8415 21.5913C18.8415 22.2128 19.0884 22.8089 19.5279 23.2483C19.9674 23.6878 20.5634 23.9347 21.185 23.9347C21.8065 23.9347 22.4025 23.6878 22.842 23.2483C23.2815 22.8089 23.5284 22.2128 23.5284 21.5913C23.5284 20.9698 23.2815 20.3737 22.842 19.9342C22.4025 19.4948 21.8065 19.2479 21.185 19.2479Z" fill="white"/>
</svg>
