<svg width="1201" height="473" viewBox="0 0 1201 473" fill="none" xmlns="http://www.w3.org/2000/svg">
<g clip-path="url(#clip0_30_3170)">
<path d="M327.196 32.8247H318.864C319.528 31.9899 320.227 31.0016 320.857 29.843C322.697 26.4183 323.14 23.1469 323.208 21C323.208 23.0446 323.515 26.299 325.236 29.7237C325.849 30.9505 326.531 31.9728 327.196 32.8247Z" fill="#6F8DCE"/>
<path d="M327.196 32.7224H318.864C319.528 33.5573 320.227 34.5455 320.857 35.7042C322.697 39.1289 323.14 42.4003 323.208 44.5472C323.208 42.5025 323.515 39.2482 325.236 35.8234C325.849 34.5967 326.531 33.5573 327.196 32.7224Z" fill="#6F8DCE"/>
<path d="M323.072 28.5483V36.8802C322.459 36.2157 321.709 35.5171 320.84 34.8867C318.284 33.0465 315.814 32.6035 314.229 32.5354C315.763 32.5354 318.199 32.2287 320.772 30.5078C321.658 29.8944 322.425 29.2128 323.072 28.5483Z" fill="#6F8DCE"/>
<path d="M322.987 28.5483V36.8802C323.6 36.2157 324.35 35.5171 325.219 34.8867C327.775 33.0465 330.245 32.6035 331.83 32.5354C330.297 32.5354 327.86 32.2287 325.287 30.5078C324.384 29.8944 323.617 29.2128 322.987 28.5483Z" fill="#6F8DCE"/>
<rect x="-119" width="1440" height="473" fill="#2D3F59"/>
<path d="M225 21.5C225 25.6373 221.637 29 217.5 29C213.363 29 210 25.6373 210 21.5C210 17.3627 213.363 14 217.5 14C221.655 14 225 17.3627 225 21.5Z" fill="#D9E9ED"/>
<path d="M247.966 71.9964H239.634C240.299 71.1615 240.998 70.1733 241.628 69.0146C243.468 65.5899 243.911 62.3185 243.979 60.1716C243.979 62.2163 244.286 65.4706 246.007 68.8954C246.62 70.1221 247.302 71.1445 247.966 71.9964Z" fill="#6F8DCE"/>
<path d="M247.966 71.894H239.634C240.299 72.7289 240.998 73.7172 241.628 74.8758C243.468 78.3005 243.911 81.5719 243.979 83.7188C243.979 81.6742 244.286 78.4198 246.007 74.9951C246.62 73.7683 247.302 72.7289 247.966 71.894Z" fill="#6F8DCE"/>
<path d="M243.843 67.7197V76.0516C243.23 75.3871 242.48 74.6885 241.611 74.0581C239.055 72.2179 236.585 71.7749 235 71.7067C236.533 71.7067 238.97 71.4001 241.543 69.6792C242.429 69.0658 243.196 68.3842 243.843 67.7197Z" fill="#6F8DCE"/>
<path d="M243.758 67.7197V76.0516C244.371 75.3871 245.121 74.6885 245.99 74.0581C248.546 72.2179 251.016 71.7749 252.601 71.7067C251.067 71.7067 248.631 71.4001 246.058 69.6792C245.155 69.0658 244.388 68.3842 243.758 67.7197Z" fill="#6F8DCE"/>
<path d="M251.033 98.2866H245.376C245.836 97.7244 246.297 97.0598 246.722 96.259C247.966 93.9418 248.273 91.7097 248.324 90.2615C248.324 91.6586 248.529 93.8566 249.704 96.1909C250.113 97.0087 250.59 97.7073 251.033 98.2866Z" fill="#6F8DCE"/>
<path d="M251.033 98.2185H245.376C245.836 98.7808 246.297 99.4453 246.722 100.246C247.966 102.563 248.273 104.795 248.324 106.244C248.324 104.846 248.529 102.649 249.704 100.314C250.113 99.4794 250.59 98.7808 251.033 98.2185Z" fill="#6F8DCE"/>
<path d="M248.239 95.3901V101.047C247.813 100.587 247.319 100.127 246.722 99.7009C244.985 98.4571 243.315 98.1504 242.241 98.0993C243.281 98.0993 244.933 97.8948 246.671 96.7191C247.285 96.3102 247.796 95.8331 248.239 95.3901Z" fill="#6F8DCE"/>
<path d="M248.171 95.3901V101.047C248.597 100.587 249.091 100.127 249.687 99.7009C251.425 98.4571 253.095 98.1504 254.168 98.0993C253.129 98.0993 251.476 97.8948 249.738 96.7191C249.125 96.3102 248.614 95.8331 248.171 95.3901Z" fill="#6F8DCE"/>
<path d="M283.76 72.52C294.121 72.52 302.52 64.1209 302.52 53.76C302.52 43.3991 294.121 35 283.76 35C273.399 35 265 43.3991 265 53.76C265 64.1209 273.399 72.52 283.76 72.52Z" fill="#6F8DCE"/>
<path d="M272.219 46.8937C272.219 47.1696 271.989 47.3995 271.713 47.3995C271.437 47.3995 271.207 47.1696 271.207 46.8937C271.207 46.6178 271.437 46.3879 271.713 46.3879C271.989 46.3726 272.219 46.6025 272.219 46.8937Z" fill="white"/>
<path d="M271.79 49.6984C271.79 49.9129 271.621 50.0815 271.407 50.0815C271.192 50.0815 271.023 49.9129 271.023 49.6984C271.023 49.4838 271.192 49.3152 271.407 49.3152C271.621 49.3152 271.79 49.4838 271.79 49.6984Z" fill="white"/>
<path d="M275.254 47.6907C275.254 47.9665 275.039 48.1811 274.763 48.1811C274.487 48.1811 274.273 47.9665 274.273 47.6907C274.273 47.4148 274.487 47.2002 274.763 47.2002C275.039 47.2155 275.254 47.4301 275.254 47.6907Z" fill="white"/>
<path d="M275.453 45.4989C276.342 45.4989 277.062 44.7784 277.062 43.8896C277.062 43.0008 276.342 42.2803 275.453 42.2803C274.564 42.2803 273.844 43.0008 273.844 43.8896C273.844 44.7784 274.564 45.4989 275.453 45.4989Z" fill="white"/>
<path d="M275.913 54.0819C275.913 54.2658 275.759 54.4037 275.591 54.4037C275.407 54.4037 275.269 54.2505 275.269 54.0819C275.269 53.9133 275.422 53.76 275.591 53.76C275.759 53.76 275.913 53.898 275.913 54.0819Z" fill="white"/>
<path d="M269.889 55.5993C269.889 55.8445 269.69 56.0437 269.445 56.0437C269.2 56.0437 269 55.8445 269 55.5993C269 55.354 269.2 55.1548 269.445 55.1548C269.69 55.1701 269.889 55.354 269.889 55.5993Z" fill="white"/>
<path d="M295.899 57.9903C296.356 57.9903 296.726 57.6197 296.726 57.1626C296.726 56.7055 296.356 56.335 295.899 56.335C295.442 56.335 295.071 56.7055 295.071 57.1626C295.071 57.6197 295.442 57.9903 295.899 57.9903Z" fill="white"/>
<path d="M292.036 59.1246C292.282 59.1246 292.481 58.9256 292.481 58.6801C292.481 58.4346 292.282 58.2356 292.036 58.2356C291.791 58.2356 291.592 58.4346 291.592 58.6801C291.592 58.9256 291.791 59.1246 292.036 59.1246Z" fill="white"/>
<path d="M286.427 60.8257C287.019 60.8257 287.5 60.3453 287.5 59.7528C287.5 59.1603 287.019 58.6799 286.427 58.6799C285.834 58.6799 285.354 59.1603 285.354 59.7528C285.354 60.3453 285.834 60.8257 286.427 60.8257Z" fill="white"/>
<path d="M295.807 63.3392C295.807 63.5998 295.592 63.799 295.347 63.799C295.086 63.799 294.887 63.5844 294.887 63.3392C294.887 63.094 295.102 62.8794 295.347 62.8794C295.592 62.8794 295.807 63.0786 295.807 63.3392Z" fill="white"/>
<path d="M289.4 64.688C289.646 64.688 289.845 64.489 289.845 64.2436C289.845 63.9981 289.646 63.7991 289.4 63.7991C289.155 63.7991 288.956 63.9981 288.956 64.2436C288.956 64.489 289.155 64.688 289.4 64.688Z" fill="white"/>
<path d="M283.178 64.4428C283.178 64.7953 282.886 65.0865 282.534 65.0865C282.181 65.0865 281.89 64.7953 281.89 64.4428C281.89 64.0903 282.181 63.7991 282.534 63.7991C282.886 63.7991 283.178 64.0903 283.178 64.4428Z" fill="white"/>
<path d="M291.776 62.5423C292.25 62.5423 292.634 62.158 292.634 61.684C292.634 61.21 292.25 60.8257 291.776 60.8257C291.302 60.8257 290.918 61.21 290.918 61.684C290.918 62.158 291.302 62.5423 291.776 62.5423Z" fill="white"/>
<path d="M287.209 42.4643C287.556 42.4643 287.837 42.183 287.837 41.8359C287.837 41.4889 287.556 41.2075 287.209 41.2075C286.861 41.2075 286.58 41.4889 286.58 41.8359C286.58 42.183 286.861 42.4643 287.209 42.4643Z" fill="white"/>
<path d="M290.948 42.9241C291.422 42.9241 291.807 42.5398 291.807 42.0658C291.807 41.5918 291.422 41.2075 290.948 41.2075C290.474 41.2075 290.09 41.5918 290.09 42.0658C290.09 42.5398 290.474 42.9241 290.948 42.9241Z" fill="white"/>
<path d="M218.933 406.777H227.109C226.457 405.959 225.771 404.99 225.152 403.855C223.347 400.498 222.912 397.292 222.845 395.188C222.845 397.192 222.544 400.381 220.855 403.738C220.253 404.94 219.585 405.942 218.933 406.777Z" fill="#6F8DCE"/>
<path d="M218.933 406.66H227.109C226.457 407.479 225.771 408.447 225.152 409.583C223.347 412.94 222.912 416.146 222.845 418.25C222.845 416.246 222.544 413.057 220.855 409.7C220.253 408.497 219.585 407.495 218.933 406.66Z" fill="#6F8DCE"/>
<path d="M222.979 402.586V410.752C223.581 410.101 224.316 409.416 225.169 408.798C227.677 406.995 230.102 406.56 231.657 406.493C230.152 406.493 227.761 406.193 225.236 404.506C224.367 403.905 223.598 403.237 222.979 402.586Z" fill="#6F8DCE"/>
<path d="M223.062 402.586V410.752C222.461 410.101 221.725 409.416 220.872 408.798C218.364 406.995 215.94 406.56 214.385 406.493C215.89 406.493 218.281 406.193 220.805 404.506C221.675 403.905 222.444 403.237 223.062 402.586Z" fill="#6F8DCE"/>
<path d="M255.232 388.324H261.352C260.867 387.723 260.348 386.988 259.897 386.136C258.543 383.631 258.225 381.21 258.175 379.656C258.175 381.159 257.957 383.548 256.687 386.069C256.235 386.954 255.717 387.706 255.232 388.324Z" fill="#6F8DCE"/>
<path d="M255.232 388.24H261.352C260.867 388.841 260.348 389.576 259.897 390.428C258.543 392.933 258.225 395.354 258.175 396.908C258.175 395.405 257.957 393.016 256.687 390.495C256.235 389.626 255.717 388.875 255.232 388.24Z" fill="#6F8DCE"/>
<path d="M258.275 385.184V391.297C258.726 390.812 259.278 390.295 259.914 389.844C261.803 388.491 263.609 388.174 264.779 388.124C263.642 388.124 261.87 387.906 259.98 386.637C259.295 386.186 258.726 385.669 258.275 385.184Z" fill="#6F8DCE"/>
<path d="M258.325 385.184V391.297C257.874 390.812 257.322 390.295 256.687 389.844C254.797 388.491 252.991 388.174 251.821 388.124C252.958 388.124 254.73 387.906 256.62 386.637C257.289 386.186 257.857 385.669 258.325 385.184Z" fill="#6F8DCE"/>
<path d="M805.998 430C811.039 449.135 823.189 462.551 837.514 473H406.341C403.993 453.887 397.918 436.73 381.61 424.991C360.455 409.769 343.889 419.358 321.291 400.61C292.898 377.046 293.76 340.861 285.789 301.796C278.464 265.762 261.489 216.785 218.878 161.401C252.032 113.606 275.19 105.587 290.42 107.5C309.055 109.844 316.595 127.173 329.908 123.26C347.573 118.078 339.731 85.914 367.241 58.7595C381.912 44.3115 390.679 46.956 397.401 33.6905C403.713 21.2205 400.417 10.1265 398.349 0H726.269C853.284 27.434 971.681 72.2185 979.587 149.618C990.553 256.968 779.824 330.971 805.998 430Z" fill="#AA95ED"/>
<path d="M1321 -0.000978103V473L687.078 472.999C686.561 469.065 685.486 466.42 683.615 463.69C669.742 443.587 636.706 454.961 556.717 450.059C552.2 449.779 545.576 449.328 537.295 448.425C489.977 443.2 461.366 447.993 459 441.5C456.591 434.943 474.577 426.664 473.373 414C472.642 406.324 467.544 401.746 463.5 394.5C453.477 376.504 444.571 373.341 439 359C432.72 342.854 416.255 335.896 395.5 326.5C381.412 320.115 372.381 303.576 337 304.5C326.095 298.394 318.364 287.433 304.362 268.749C273.691 227.792 282.252 185.394 251.839 167.699C240.504 161.099 228.051 160.432 217.878 161.4C229.944 153.638 248.656 144.2 271.992 143.254C317.03 141.426 343.98 172.73 360.627 160.69C375.468 149.94 356.304 122.463 374.952 99.286C391.814 78.3235 413.989 89.095 434.809 65.961C450.983 48.0085 443.197 34.442 459.93 17.199C468.189 8.70652 477.717 3.41752 486.686 -0.000978103H1321Z" fill="#EEEAFB"/>
<path d="M167.724 175.16C176.27 177.332 183.674 178.557 189.443 179.288C190.8 179.46 198.635 180.385 206.922 178.17C209.161 177.568 211.443 176.751 212.648 174.58C214.37 171.462 212.928 168.409 212.777 168.13C212.864 167.356 213.143 166.99 213.359 166.818C214.112 166.216 215.274 166.818 216.222 165.915C216.265 165.872 216.308 165.829 216.351 165.786C217.018 165.034 217.642 163.593 217.04 162.475C216.674 161.809 215.985 161.508 215.662 161.4C215.942 161.25 217.987 160.11 218.223 157.982C218.223 157.896 218.245 157.81 218.245 157.745C218.288 157.014 217.987 156.305 217.47 155.789C216.781 155.101 216.006 154.241 215.21 153.23C210.108 146.63 208.795 138.503 209.462 135.02C209.549 134.611 209.871 132.999 210.022 130.763C210.065 130.053 210.087 129.279 210.065 128.419C209.914 122.55 207.956 118.185 206.793 115.67C203.866 109.327 199.776 104.984 196.784 102.361C193.297 99.1364 187.14 94.4064 178.444 92.4929C162.687 89.0099 139.482 95.8684 132.852 113.821C126.114 132.031 139.59 153.058 149.599 158.347C151.149 159.164 155.971 161.379 160.879 166.238C164.28 169.549 166.432 172.881 167.724 175.16Z" fill="#F19C7C"/>
<path d="M212.907 152.435C213.316 151.897 213.983 151.166 214.973 150.586C216.028 149.984 216.566 150.177 217.427 149.511C217.75 149.253 218.482 148.608 218.805 147.511C218.848 147.339 219.214 146.071 218.675 144.867C218.008 143.383 216.351 142.781 215.705 142.523C214.241 141.921 212.046 140.33 208.838 135.858C208.838 138.761 208.817 141.685 208.817 144.587C210.194 147.189 211.55 149.812 212.907 152.435Z" fill="#F19C7C"/>
<path d="M205.954 138.438C203.241 138.438 201.218 137.17 200.938 136.976C200.572 136.74 200.465 136.224 200.701 135.858C200.938 135.493 201.455 135.386 201.821 135.622C202.144 135.837 205.114 137.686 208.558 136.31C212.175 134.848 212.95 131.086 212.971 130.935C213.057 130.505 213.488 130.225 213.918 130.29C214.349 130.376 214.65 130.806 214.564 131.236C214.478 131.731 213.509 136.052 209.161 137.793C208.042 138.266 206.944 138.438 205.954 138.438Z" fill="#22130C"/>
<path d="M209 161.203C212.194 160.803 217.384 160.723 217.384 163.598C217.384 169.587 210.198 168.389 209 161.203Z" fill="#C93838"/>
<path d="M212.616 158.84C211.608 159.771 210.844 160.602 210.366 161.163C211.015 161.431 212.741 162.022 214.681 161.516C214.892 161.454 218.153 160.565 218.433 158.155C218.528 157.345 218.325 156.035 217.541 155.714C216.447 155.251 214.734 156.869 212.616 158.84Z" fill="#B93232"/>
<path d="M208.472 118.959C208.687 118.959 210.237 118.938 211.335 120.206C212.239 121.26 212.218 122.485 212.196 122.743L208.472 118.959Z" fill="#22130C"/>
<path d="M208.042 119.002C208.451 119.497 209.01 120.185 209.721 120.937C210.883 122.163 211.228 122.313 211.184 122.571C211.034 123.539 206.32 122.915 201.562 124.033C198.161 124.829 195.578 126.334 193.856 127.538C194.028 126.764 194.287 126.097 194.588 125.517C197.602 119.561 206.599 119.067 208.042 119.002Z" fill="#22130C"/>
<path d="M245.798 198.789C249.371 199.735 252.945 200.659 256.518 201.605C257.465 227.663 255.054 261.332 242.246 297.71C239.168 306.461 235.767 314.566 232.215 322.07C224.896 330.154 214.047 330.82 208.601 325.897C203.5 321.296 204.662 313.169 204.791 312.352C206.083 303.322 207.891 296.356 209.075 292.271C218.697 258.709 234.841 246.927 242.957 214.183C244.636 207.324 245.432 201.713 245.798 198.789Z" fill="#F19C7C"/>
<path d="M186.925 473H94.9236C93.7396 471.344 92.6203 469.732 91.501 468.119C92.1898 467.797 92.8786 467.496 93.5674 467.173C95.7846 466.163 97.9802 465.152 100.197 464.142C119.162 455.456 138.169 446.77 157.133 438.105C166.174 447.823 175.473 458.552 184.837 470.355C185.547 471.237 186.236 472.118 186.925 473Z" fill="#F95555"/>
<path d="M191.187 246.842C191.058 248.712 190.778 250.712 190.391 252.432C190.283 253.227 190.154 254.001 189.982 254.754C189.702 256.044 189.379 257.291 189.034 258.538C187.377 263.676 185.956 269.911 184.665 276.791C184.191 279.242 183.761 281.801 183.309 284.402C183.029 286.058 182.77 287.713 182.512 289.412C182.189 291.368 181.888 293.303 181.587 295.281C179.262 309.536 177.174 324.715 174.505 338.26C172.826 347.29 170.802 355.094 169.64 362.404C169.317 364.232 169.058 366.016 168.843 367.779C168.499 370.639 168.305 373.434 168.37 376.186C168.413 381.152 169.188 386.011 170.953 391.021C171.512 392.397 171.749 392.956 172.912 395.858C179.154 412.951 182.34 433.612 182.469 433.634C183.976 443.266 185.16 455.714 184.837 470.356C181.608 471.259 178.035 472.162 174.139 473H89.3914C88.7456 472.871 88.1214 472.742 87.5187 472.592C60.3746 466.421 39.9466 455.843 27.6984 448.512C28.4518 439.116 31.0134 422.884 41.6902 406.522C44.5316 402.265 46.7057 400.137 52.2809 393.386C53.7231 391.644 55.2515 389.795 56.8013 387.86C62.3765 380.959 68.6836 372.746 75.4212 363.264C76.4975 361.652 77.5307 360.254 78.5855 358.706C78.9299 355.589 79.1667 352.127 79.016 348.236C79.0375 347.548 79.059 346.838 79.0806 346.129V345.72C79.1021 344.366 79.1021 342.968 79.0806 341.506C79.0806 340.259 79.0375 338.991 78.9729 337.679V337.529C78.8653 335.594 78.7362 333.573 78.5209 331.487C78.4778 330.842 78.4133 330.197 78.3272 329.531C78.2626 328.821 78.1765 328.112 78.0904 327.402C77.6168 323.511 76.928 319.426 76.0024 315.212C73.9574 305.666 71.482 300.377 67.9948 288.315C67.8871 287.907 67.758 287.627 67.6504 287.219C67.2198 285.563 66.7893 284.058 66.488 282.553C65.7561 280.081 65.0672 277.737 64.3999 275.372C64.1201 274.319 63.8403 273.287 63.5604 272.255C63.2591 271.201 62.9793 270.169 62.6994 269.116C62.6348 268.879 62.5703 268.621 62.5057 268.385C61.5155 264.687 60.5899 261.032 59.7073 257.355C58.6095 253.507 57.6624 249.68 56.8444 246.003C58.2221 241.381 59.8795 236.78 61.7953 232.351C63.7111 228.029 65.8637 224.009 68.4038 220.418C68.6621 220.289 68.8127 220.311 68.9419 220.182C70.6209 219.343 72.2784 218.784 73.9144 218.354C75.4427 218.204 76.928 218.032 78.5209 218.139H78.9945C82.6539 218.182 86.8944 218.999 92.1252 219.988C93.0723 220.16 93.9979 220.311 94.8375 220.418C95.2034 220.461 95.5478 220.483 95.8707 220.504C96.129 220.655 96.3873 220.676 96.6672 220.698C106.461 221.644 110.358 218.161 121.12 216.161C124.909 215.452 129.537 214.936 135.564 214.85C137.351 214.828 139.46 214.807 141.807 214.871C146.198 215 151.472 215.387 157.262 216.57C157.391 216.72 157.65 216.871 157.779 216.892C158.748 217.774 159.759 218.526 160.814 219.171C162.321 220.117 163.871 220.848 165.464 221.472C168.37 222.611 171.448 223.364 174.526 224.202C179.176 225.32 183.782 226.696 187.635 229.663C190.412 234.135 191.402 239.467 191.187 244.821C191.273 245.509 191.23 246.175 191.187 246.842Z" fill="#F19C7C"/>
<path d="M200.013 245.681C198.011 245.552 195.858 245.401 193.856 245.122C192.909 245.057 192.113 245.014 191.187 244.799L189.573 244.692C159.2 241.703 128.827 238.844 98.4538 235.855C96.0429 235.554 93.7612 235.404 91.501 235.124C82.9337 234.286 74.4956 233.576 66.079 232.738C65.4117 232.566 64.8735 232.523 64.2062 232.48L61.7953 232.308C63.7111 228.008 65.8637 223.966 68.3822 220.375C71.6757 215.624 75.7225 211.453 80.5228 208.142C80.5228 208.142 80.5228 208.142 80.652 208.142C82.4171 207.862 84.3113 207.712 86.0765 207.561C90.9413 207.217 96.086 206.895 102.436 204.487C103.276 204.143 104.094 203.799 104.933 203.433C110.207 200.961 114.749 197.779 118.494 193.995C126.136 186.577 131.044 177.633 134.725 171.011C140.881 159.595 143.615 149.017 144.756 142.223C147.21 147.641 150.589 153.639 155.433 159.487L157.176 161.487C158.08 160.605 161.438 157.552 166.626 157.273C173.816 156.864 178.358 162.11 178.874 162.712C172.287 173.677 166.97 182.836 162.644 189.974C161.051 192.619 158.877 197.177 158.791 203.025C158.769 205.454 159.286 207.776 160.663 209.195C160.663 209.195 160.793 209.346 161.051 209.496C162.708 210.958 164.387 212.012 166.217 212.807C174.16 216.978 183.739 216.677 191.036 222.289C192.457 223.321 193.706 224.611 194.803 226.18C199.948 232.759 200.357 240.736 200.013 245.681Z" fill="#F19C7C"/>
<path d="M100.585 431.849C100.456 442.62 100.327 453.392 100.197 464.142C100.154 467.109 100.111 470.054 100.09 473H14.3955C29.7649 436.88 30.0448 410.736 53.3572 383.28C56.1125 380.055 60.3531 375.411 66.3588 370.273C69.0495 367.951 72.0416 365.586 75.3997 363.199C77.9397 370.122 80.4582 376.981 82.9767 383.839C88.8533 399.835 94.7083 415.853 100.585 431.849Z" fill="white"/>
<path d="M208.752 473H87.8201C87.7124 472.871 87.6048 472.72 87.5187 472.591C85.3876 469.603 83.2566 466.636 81.1255 463.647C78.7146 460.293 76.3253 456.918 73.9144 453.564C73.6345 453.177 73.3547 452.79 73.0964 452.424C72.7089 451.973 72.3215 451.543 71.9555 451.091C56.0049 432.472 50.0422 408.607 56.8013 387.86C56.9735 387.301 57.1673 386.763 57.361 386.204C59.6858 379.819 62.9362 374.551 66.3588 370.273C70.7716 364.769 75.3997 360.963 78.5855 358.641C88.186 358.233 99.2287 358.469 111.326 359.996C135.005 362.984 154.335 369.821 168.37 376.185C176.119 390.289 181.07 402.243 184.105 410.306C194.071 436.772 195.557 454.123 208.752 473Z" fill="white"/>
<path d="M86.507 237.725C79.5756 248.26 72.5367 258.623 65.5839 269.158C62.7425 273.501 59.7288 277.909 56.8874 282.252C47.0071 296.958 37.2774 311.685 27.3971 326.391C24.4911 322.908 21.2622 319.296 17.7104 315.598C14.1587 311.922 10.6715 308.589 7.31348 305.579C23.7162 278.21 34.3284 257.355 41.3243 242.434C44.1226 236.457 50.5158 227.771 59.9011 217.859C71.9986 205.088 87.5833 204.551 92.5127 210.098C97.0761 215.107 95.5047 227.384 86.507 237.725Z" fill="#F19C7C"/>
<path d="M65.6054 269.158C62.764 273.501 59.7504 277.909 56.909 282.252C48.0188 274.963 38.978 267.653 30.1308 260.236C41.8624 263.203 53.8523 266.213 65.6054 269.158Z" fill="#F19C7C"/>
<path d="M96.5165 229.792C96.8178 230.028 98.3246 231.275 98.5399 233.425C98.6906 234.93 98.1094 236.091 97.8726 236.521C91.2857 244.971 84.6988 253.571 78.0904 262.321C74.4525 267.137 70.8792 271.91 67.3275 276.705C65.6054 275.931 63.8833 275.157 62.1613 274.383C55.4022 271.351 48.4493 268.384 41.6902 265.353C41.4534 265.224 41.3243 265.159 41.0444 265.159C37.3635 263.482 33.8118 261.87 30.0663 260.322C27.9998 259.354 25.7396 258.451 23.6516 257.484C25.8042 253.764 29.399 248.239 34.2423 241.832C38.6336 235.962 43.4553 229.555 48.9444 223.363C52.1302 219.73 55.5313 216.247 59.1261 212.979C62.6564 209.84 66.2727 207.066 70.0828 204.852C75.0337 201.885 80.4582 199.756 86.2056 198.746C86.2056 198.746 86.2056 198.746 86.3348 198.81C87.8416 198.552 89.2838 198.423 90.8552 198.359C93.5029 198.251 96.9255 198.423 101.101 199.455C101.101 199.455 101.274 199.391 101.403 199.455C102.931 199.713 104.287 200.079 105.514 200.53C116.04 204.357 120.776 214.978 122.326 218.956C119.312 224.524 116.083 226.309 113.802 226.911C111.24 227.599 109.453 226.911 99.3579 226.395C97.8941 226.309 96.7102 226.266 95.8922 226.244C96.8609 226.395 97.5928 227.19 97.6143 228.072C97.6143 228.738 97.2053 229.426 96.5165 229.792Z" fill="#DA801C"/>
<path d="M88.229 470.656C87.9492 470.656 87.6694 470.506 87.5187 470.248L83.9669 463.841C80.0062 461.046 76.4329 457.778 73.3332 454.123C72.6228 453.241 71.977 452.446 71.3528 451.629C62.0967 439.202 58.9109 424.173 62.5272 410.37C66.122 396.696 75.3781 388.053 82.5247 383.194C84.5481 381.818 86.5715 380.636 88.5519 379.625C88.9394 379.432 89.4345 379.582 89.6282 379.991C89.8219 380.399 89.6713 380.872 89.2623 381.066C87.3465 382.033 85.3661 383.194 83.4072 384.527C76.4975 389.236 67.5212 397.599 64.0555 410.779C60.5684 424.109 63.6466 438.6 72.5367 450.554C73.1825 451.414 73.8282 452.209 74.474 453.005C77.5522 456.66 81.104 459.885 85.0217 462.637C85.1293 462.701 85.1939 462.787 85.2585 462.895L88.9178 469.474C89.1331 469.861 89.004 470.355 88.595 470.57C88.4873 470.635 88.3582 470.656 88.229 470.656Z" fill="#22130C"/>
<path d="M184.88 134.827C183.481 136.676 181.974 138.482 179.951 141.793C176.614 147.254 176.27 149.92 171.599 154.048C162.041 162.454 150.073 164.69 141.096 165.185C136.834 164.54 131.065 162.884 126.394 158.369C115.029 147.426 117.504 126.571 124.995 113.735C129.365 106.253 131.324 109.951 161.46 90.8591C171.749 84.3446 176.549 80.7756 183.158 81.9366C190.369 83.2266 196.891 89.6551 199.044 96.7286C203.263 110.661 190.584 127.323 184.88 134.827Z" fill="#6F8DCE"/>
<path d="M-15.3747 427.571C-18.8404 426.324 -22.3276 425.077 -25.7932 423.83C-23.1455 396.245 -16.817 363.78 -3.14806 329.337C0.166916 320.974 3.69715 313.062 7.35654 305.601C16.6342 307.149 25.9118 308.697 35.1894 310.245C35.8782 313.019 36.6316 317.362 35.8998 322.479C34.802 330.262 30.7336 335.508 29.4205 337.679C14.5677 362.318 -1.98566 385.753 -11.1772 412.499C-13.4805 419.186 -14.772 424.711 -15.3747 427.571Z" fill="#F19C7C"/>
<path d="M241.428 201.218C240.696 199.176 239.362 196.295 236.886 193.564C233.033 189.264 229.245 188.469 229.524 187.179C229.912 185.502 236.886 184.9 243.021 186.835C245.863 187.716 248.037 189.006 249.457 189.995C257.917 186.512 266.398 183.008 274.858 179.525C281.703 172.236 289.538 164.389 290.959 165.485C292.444 166.625 286.331 177.224 282.349 183.309C275.74 193.371 264.482 206.894 244.743 219.622C243.624 213.473 242.526 207.346 241.428 201.218Z" fill="#F19C7C"/>
<path d="M192.414 88.15C193.038 92.45 195.6 113.004 181.823 131.795C164.732 155.122 137.05 155.853 133.95 155.875C132.249 159.143 129.386 163.529 124.565 167.012C115.761 173.354 106.182 169.678 97.7219 172.709C74.9691 180.879 64.8089 193.779 45.3281 190.64C29.6358 188.103 24.2543 177.762 11.8124 180.815C-1.38293 184.061 -2.95432 197.499 -13.5235 197.8C-23.985 198.101 -25.6856 185.029 -39.3545 178.45C-57.0487 169.936 -69.2754 184.62 -94.6112 183.459C-103.652 183.051 -111.509 180.75 -119 177.181V0H166.152C158.941 6.9015 142.474 13.717 144.325 22.2095C145.854 29.1755 157.736 28.7455 162.299 39.2375C166.174 48.1385 157.327 54.008 161.546 61.6405C164.861 67.6175 173.687 70.9285 179.499 73.1C184.277 74.8845 187.807 75.4435 190.261 78.8405C192.457 81.872 192.608 85.5485 192.414 88.15Z" fill="#6F8DCE"/>
<path d="M135.172 51.294H131.272C131.587 50.9081 131.91 50.4413 132.198 49.9028C133.061 48.3052 133.258 46.7704 133.294 45.7742C133.294 46.7345 133.438 48.2514 134.238 49.849C134.543 50.4144 134.867 50.8991 135.172 51.294Z" fill="#E2EBF7"/>
<path d="M135.172 51.2402H131.272C131.587 51.6262 131.91 52.0929 132.198 52.6314C133.061 54.229 133.258 55.7638 133.294 56.7601C133.294 55.7997 133.438 54.2829 134.238 52.6853C134.543 52.1198 134.867 51.6351 135.172 51.2402Z" fill="#E2EBF7"/>
<path d="M133.249 49.2925V53.1878C132.962 52.8736 132.611 52.5505 132.207 52.2633C131.012 51.4017 129.861 51.2042 129.116 51.1683C129.835 51.1683 130.967 51.0247 132.171 50.2259C132.593 49.9297 132.953 49.6066 133.249 49.2925Z" fill="#E2EBF7"/>
<path d="M133.213 49.2925V53.1878C133.501 52.8736 133.851 52.5505 134.256 52.2633C135.451 51.4017 136.601 51.2042 137.347 51.1683C136.628 51.1683 135.496 51.0247 134.292 50.2259C133.869 49.9297 133.51 49.6066 133.213 49.2925Z" fill="#E2EBF7"/>
<path d="M44.4125 132.97H40.5125C40.8271 132.584 41.1506 132.117 41.4381 131.578C42.3008 129.981 42.4985 128.446 42.5344 127.45C42.5344 128.41 42.6782 129.927 43.478 131.525C43.7835 132.09 44.107 132.575 44.4125 132.97Z" fill="#E2EBF7"/>
<path d="M44.4125 132.916H40.5125C40.8271 133.302 41.1506 133.768 41.4381 134.307C42.3008 135.905 42.4985 137.439 42.5344 138.436C42.5344 137.475 42.6782 135.958 43.478 134.361C43.7835 133.795 44.107 133.311 44.4125 132.916Z" fill="#E2EBF7"/>
<path d="M42.4895 130.968V134.863C42.2019 134.549 41.8515 134.226 41.4471 133.939C40.252 133.077 39.1017 132.88 38.3559 132.844C39.0748 132.844 40.207 132.7 41.4112 131.901C41.8335 131.605 42.193 131.282 42.4895 130.968Z" fill="#E2EBF7"/>
<path d="M42.4536 130.968V134.863C42.7411 134.549 43.0916 134.226 43.4959 133.939C44.6911 133.077 45.8413 132.88 46.5872 132.844C45.8683 132.844 44.736 132.7 43.5319 131.901C43.1095 131.605 42.7501 131.282 42.4536 130.968Z" fill="#E2EBF7"/>
<path d="M140.573 61.4901H138.254C138.443 61.2568 138.632 60.9875 138.803 60.6644C139.315 59.713 139.432 58.8065 139.459 58.2141C139.459 58.7796 139.54 59.6861 140.025 60.6375C140.204 60.9695 140.393 61.2568 140.573 61.4901Z" fill="#E2EBF7"/>
<path d="M140.573 61.4631H138.254C138.443 61.6965 138.632 61.9658 138.803 62.2889C139.315 63.2402 139.432 64.1468 139.459 64.7391C139.459 64.1737 139.54 63.2672 140.025 62.3158C140.204 61.9837 140.393 61.6965 140.573 61.4631Z" fill="#E2EBF7"/>
<path d="M139.432 60.3054V62.6211C139.261 62.4326 139.054 62.2441 138.812 62.0736C138.102 61.562 137.419 61.4453 136.978 61.4184C137.401 61.4184 138.084 61.3376 138.794 60.8529C139.045 60.6824 139.252 60.4939 139.432 60.3054Z" fill="#E2EBF7"/>
<path d="M139.405 60.3054V62.6211C139.575 62.4326 139.782 62.2441 140.025 62.0736C140.735 61.562 141.418 61.4453 141.858 61.4184C141.436 61.4184 140.753 61.3376 140.043 60.8529C139.8 60.6824 139.584 60.4939 139.405 60.3054Z" fill="#E2EBF7"/>
<path d="M49.8132 143.166H47.4948C47.6835 142.932 47.8722 142.663 48.0429 142.34C48.5551 141.389 48.672 140.482 48.6989 139.89C48.6989 140.455 48.7798 141.362 49.265 142.313C49.4448 142.645 49.6335 142.932 49.8132 143.166Z" fill="#E2EBF7"/>
<path d="M49.8132 143.139H47.4948C47.6835 143.372 47.8722 143.641 48.0429 143.964C48.5551 144.916 48.672 145.822 48.6989 146.415C48.6989 145.849 48.7798 144.943 49.265 143.991C49.4448 143.659 49.6335 143.372 49.8132 143.139Z" fill="#E2EBF7"/>
<path d="M48.672 141.981V144.297C48.5012 144.108 48.2945 143.92 48.0519 143.749C47.342 143.238 46.6591 143.121 46.2187 143.094C46.6411 143.094 47.324 143.013 48.0339 142.528C48.2855 142.358 48.4922 142.169 48.672 141.981Z" fill="#E2EBF7"/>
<path d="M48.645 141.981V144.297C48.8157 144.108 49.0224 143.92 49.265 143.749C49.9749 143.238 50.6579 143.121 51.0982 143.094C50.6758 143.094 49.9929 143.013 49.283 142.528C49.0404 142.358 48.8247 142.169 48.645 141.981Z" fill="#E2EBF7"/>
<path d="M112.851 63.6083H110.532C110.721 63.3749 110.91 63.1057 111.08 62.7826C111.593 61.8312 111.709 60.9246 111.736 60.3323C111.736 60.8977 111.817 61.8042 112.303 62.7556C112.473 63.0877 112.662 63.3659 112.851 63.6083Z" fill="#E2EBF7"/>
<path d="M112.851 63.5723H110.532C110.721 63.8056 110.91 64.0749 111.08 64.398C111.593 65.3494 111.709 66.2559 111.736 66.8483C111.736 66.2828 111.817 65.3763 112.303 64.4249C112.473 64.0928 112.662 63.8056 112.851 63.5723Z" fill="#E2EBF7"/>
<path d="M111.7 62.4146V64.7302C111.53 64.5417 111.323 64.3532 111.08 64.1827C110.37 63.6711 109.688 63.5544 109.247 63.5275C109.67 63.5275 110.353 63.4467 111.062 62.962C111.314 62.7915 111.53 62.603 111.7 62.4146Z" fill="#E2EBF7"/>
<path d="M111.682 62.4146V64.7302C111.853 64.5417 112.06 64.3532 112.303 64.1827C113.012 63.6711 113.695 63.5544 114.136 63.5275C113.713 63.5275 113.03 63.4467 112.32 62.962C112.069 62.7915 111.862 62.603 111.682 62.4146Z" fill="#E2EBF7"/>
<path d="M22.0909 145.284H19.7725C19.9612 145.05 20.1499 144.781 20.3207 144.458C20.8329 143.506 20.9497 142.6 20.9767 142.008C20.9767 142.573 21.0575 143.48 21.5428 144.431C21.7135 144.763 21.9022 145.041 22.0909 145.284Z" fill="#E2EBF7"/>
<path d="M22.0909 145.248H19.7725C19.9612 145.481 20.1499 145.75 20.3207 146.073C20.8329 147.025 20.9497 147.931 20.9767 148.524C20.9767 147.958 21.0575 147.052 21.5428 146.1C21.7135 145.768 21.9022 145.481 22.0909 145.248Z" fill="#E2EBF7"/>
<path d="M20.9407 144.09V146.405C20.77 146.217 20.5633 146.029 20.3207 145.858C19.6108 145.346 18.9278 145.23 18.4875 145.203C18.9099 145.203 19.5928 145.122 20.3027 144.637C20.5543 144.467 20.77 144.278 20.9407 144.09Z" fill="#E2EBF7"/>
<path d="M20.9227 144.09V146.405C21.0935 146.217 21.3002 146.029 21.5428 145.858C22.2527 145.346 22.9356 145.23 23.3759 145.203C22.9536 145.203 22.2707 145.122 21.5608 144.637C21.3091 144.467 21.1025 144.278 20.9227 144.09Z" fill="#E2EBF7"/>
<path d="M140.258 71.5692C140.258 71.9372 139.962 72.2334 139.593 72.2334C139.225 72.2334 138.928 71.9372 138.928 71.5692C138.928 71.2012 139.225 70.905 139.593 70.905C139.962 70.905 140.258 71.2012 140.258 71.5692Z" fill="white"/>
<path d="M49.4986 153.245C49.4986 153.613 49.202 153.909 48.8336 153.909C48.4652 153.909 48.1687 153.613 48.1687 153.245C48.1687 152.877 48.4652 152.581 48.8336 152.581C49.202 152.581 49.4986 152.877 49.4986 153.245Z" fill="white"/>
<path d="M136.646 69.5319C136.646 70.1871 136.116 70.7167 135.46 70.7167C134.804 70.7167 134.274 70.1871 134.274 69.5319C134.274 68.8767 134.804 68.3472 135.46 68.3472C136.116 68.3472 136.646 68.8767 136.646 69.5319Z" fill="white"/>
<path d="M45.8863 151.207C45.8863 151.862 45.3561 152.392 44.7001 152.392C44.0441 152.392 43.5139 151.862 43.5139 151.207C43.5139 150.552 44.0441 150.022 44.7001 150.022C45.3561 150.022 45.8863 150.552 45.8863 151.207Z" fill="white"/>
<path d="M137.266 81.5948C137.673 81.5948 138.003 81.2653 138.003 80.8588C138.003 80.4523 137.673 80.1228 137.266 80.1228C136.859 80.1228 136.529 80.4523 136.529 80.8588C136.529 81.2653 136.859 81.5948 137.266 81.5948Z" fill="white"/>
<path d="M46.5063 163.27C46.9133 163.27 47.2432 162.941 47.2432 162.534C47.2432 162.128 46.9133 161.798 46.5063 161.798C46.0994 161.798 45.7694 162.128 45.7694 162.534C45.7694 162.941 46.0994 163.27 46.5063 163.27Z" fill="white"/>
<path d="M130.913 65.3855C130.913 65.7355 130.625 66.0227 130.275 66.0227C129.924 66.0227 129.637 65.7355 129.637 65.3855C129.637 65.0355 129.924 64.7483 130.275 64.7483C130.625 64.7393 130.913 65.0265 130.913 65.3855Z" fill="white"/>
<path d="M40.1529 147.061C40.1529 147.411 39.8654 147.698 39.5149 147.698C39.1645 147.698 38.8769 147.411 38.8769 147.061C38.8769 146.711 39.1645 146.424 39.5149 146.424C39.8654 146.415 40.1529 146.702 40.1529 147.061Z" fill="white"/>
<path d="M126.33 69.4419C126.945 69.4419 127.444 68.9437 127.444 68.329C127.444 67.7143 126.945 67.2161 126.33 67.2161C125.714 67.2161 125.216 67.7143 125.216 68.329C125.216 68.9437 125.714 69.4419 126.33 69.4419Z" fill="white"/>
<path d="M35.5701 151.117C36.1855 151.117 36.6844 150.619 36.6844 150.005C36.6844 149.39 36.1855 148.892 35.5701 148.892C34.9547 148.892 34.4558 149.39 34.4558 150.005C34.4558 150.619 34.9547 151.117 35.5701 151.117Z" fill="white"/>
<path d="M142.685 68.114C143.136 68.114 143.502 67.7483 143.502 67.2972C143.502 66.8461 143.136 66.4805 142.685 66.4805C142.233 66.4805 141.867 66.8461 141.867 67.2972C141.867 67.7483 142.233 68.114 142.685 68.114Z" fill="white"/>
<path d="M51.9249 149.789C52.3765 149.789 52.7426 149.424 52.7426 148.973C52.7426 148.521 52.3765 148.156 51.9249 148.156C51.4732 148.156 51.1071 148.521 51.1071 148.973C51.1071 149.424 51.4732 149.789 51.9249 149.789Z" fill="white"/>
<path d="M145.012 77.3047C145.012 77.8252 144.59 78.256 144.059 78.256C143.538 78.256 143.107 77.8342 143.107 77.3047C143.107 76.7751 143.529 76.3533 144.059 76.3533C144.59 76.3533 145.012 76.7751 145.012 77.3047Z" fill="white"/>
<path d="M54.2522 158.98C54.2522 159.501 53.8298 159.932 53.2996 159.932C52.7784 159.932 52.3471 159.51 52.3471 158.98C52.3471 158.451 52.7695 158.029 53.2996 158.029C53.8298 158.029 54.2522 158.451 54.2522 158.98Z" fill="white"/>
<path d="M138.506 79.7996C138.943 79.7996 139.297 79.446 139.297 79.0098C139.297 78.5736 138.943 78.22 138.506 78.22C138.069 78.22 137.715 78.5736 137.715 79.0098C137.715 79.446 138.069 79.7996 138.506 79.7996Z" fill="white"/>
<path d="M47.7462 161.475C48.1829 161.475 48.537 161.122 48.537 160.685C48.537 160.249 48.1829 159.896 47.7462 159.896C47.3095 159.896 46.9554 160.249 46.9554 160.685C46.9554 161.122 47.3095 161.475 47.7462 161.475Z" fill="white"/>
<path d="M151.122 72.9874C151.122 73.4003 150.79 73.7323 150.377 73.7323C149.963 73.7323 149.631 73.4003 149.631 72.9874C149.631 72.5745 149.963 72.2424 150.377 72.2424C150.79 72.2424 151.122 72.5745 151.122 72.9874Z" fill="white"/>
<path d="M60.3627 154.663C60.3627 155.076 60.0302 155.408 59.6169 155.408C59.2035 155.408 58.871 155.076 58.871 154.663C58.871 154.25 59.2035 153.918 59.6169 153.918C60.0302 153.918 60.3627 154.25 60.3627 154.663Z" fill="white"/>
<path d="M151.32 65.0534C151.722 65.0534 152.048 64.7279 152.048 64.3264C152.048 63.9249 151.722 63.5994 151.32 63.5994C150.918 63.5994 150.592 63.9249 150.592 64.3264C150.592 64.7279 150.918 65.0534 151.32 65.0534Z" fill="white"/>
<path d="M60.5605 146.729C60.9625 146.729 61.2884 146.403 61.2884 146.002C61.2884 145.6 60.9625 145.275 60.5605 145.275C60.1585 145.275 59.8326 145.6 59.8326 146.002C59.8326 146.403 60.1585 146.729 60.5605 146.729Z" fill="white"/>
<path d="M148.615 71.9462C148.615 72.5206 148.148 72.9873 147.573 72.9873C146.998 72.9873 146.531 72.5206 146.531 71.9462C146.531 71.3717 146.998 70.905 147.573 70.905C148.148 70.905 148.615 71.3717 148.615 71.9462Z" fill="white"/>
<path d="M57.8556 153.622C57.8556 154.196 57.3884 154.663 56.8133 154.663C56.2381 154.663 55.7709 154.196 55.7709 153.622C55.7709 153.047 56.2381 152.581 56.8133 152.581C57.3884 152.581 57.8556 153.047 57.8556 153.622Z" fill="white"/>
<path d="M147.573 60.377C147.573 60.6642 147.339 60.8976 147.052 60.8976C146.764 60.8976 146.531 60.6642 146.531 60.377C146.531 60.0898 146.764 59.8564 147.052 59.8564C147.339 59.8564 147.573 60.0898 147.573 60.377Z" fill="white"/>
<path d="M56.8133 142.053C56.8133 142.34 56.5796 142.573 56.292 142.573C56.0045 142.573 55.7709 142.34 55.7709 142.053C55.7709 141.765 56.0045 141.532 56.292 141.532C56.5796 141.532 56.8133 141.765 56.8133 142.053Z" fill="white"/>
<path d="M-13.8894 202.143C-19.7445 202.143 -23.0164 198.273 -26.7834 193.801C-30.0123 189.974 -33.6717 185.631 -39.8281 182.685C-49.2994 178.127 -56.9841 180.428 -66.7138 183.352C-74.4631 185.674 -83.2456 188.318 -94.6543 187.802C-102.231 187.458 -109.464 185.781 -116.718 182.664C-117.256 182.427 -117.515 181.804 -117.278 181.245C-117.041 180.707 -116.417 180.449 -115.857 180.686C-108.84 183.696 -101.865 185.33 -94.5467 185.652C-83.5039 186.168 -74.8936 183.588 -67.3165 181.309C-57.5438 178.364 -49.0842 175.848 -38.8594 180.75C-32.294 183.911 -28.4839 188.447 -25.1044 192.425C-21.4665 196.725 -18.6036 200.165 -13.5235 199.993C-8.70172 199.864 -5.88185 196.66 -2.60992 192.962C0.791159 189.114 4.66581 184.728 11.5756 183.029C18.9805 181.202 23.9745 183.868 29.7434 186.921C34.0055 189.178 38.8273 191.758 45.5218 192.833C57.7485 194.811 66.1866 190.275 76.8634 184.534C82.6754 181.417 89.2622 177.869 97.3775 174.945C100.929 173.677 104.696 173.526 108.313 173.397C113.543 173.204 118.946 172.989 123.94 169.398C127.621 166.732 130.678 163.12 133.003 158.627C133.196 158.283 133.541 158.046 133.95 158.046C137.007 158.025 164.323 157.122 180.962 134.418C193.512 117.304 192.414 98.7494 191.359 91.5684C191.338 91.4824 191.338 91.4179 191.359 91.3319C191.639 87.8059 190.993 84.9034 189.4 82.7319C187.635 80.3024 185.246 79.4854 181.931 78.3674C181.048 78.0664 180.123 77.7439 179.133 77.3784C173.148 75.1424 164.129 71.7669 160.62 65.4244C158.274 61.2104 159.544 57.4694 160.771 53.8574C161.976 50.3314 163.096 46.9989 161.331 42.9139C159.049 37.6679 154.744 35.2814 150.934 33.1959C147.425 31.2609 144.11 29.4334 143.292 25.6924C141.871 19.1349 149.556 13.8889 156.982 8.83643C158.231 7.97643 159.479 7.13793 160.663 6.27793C161.137 5.93393 161.826 6.04143 162.17 6.53593C162.515 7.00893 162.407 7.69693 161.912 8.04093C160.706 8.90093 159.458 9.76093 158.188 10.6209C151.343 15.2864 144.261 20.1024 145.402 25.2409C146.004 28.0144 148.652 29.4764 151.988 31.3254C155.885 33.4754 160.728 36.1414 163.311 42.0754C165.421 46.9129 164.043 50.9764 162.816 54.5669C161.632 58.0284 160.62 60.9954 162.515 64.3924C165.636 70.0254 174.225 73.2289 179.886 75.3574C180.855 75.7229 181.759 76.0239 182.62 76.3249C186.042 77.4859 188.991 78.4964 191.144 81.4634C193.017 84.0434 193.792 87.3759 193.512 91.3749C194.588 98.8999 195.643 118.035 182.706 135.686C166.411 157.917 141.053 160.024 134.617 160.196C132.163 164.711 128.999 168.409 125.189 171.14C119.657 175.117 113.931 175.332 108.399 175.547C104.761 175.676 101.338 175.805 98.1094 176.988C90.1448 179.847 83.644 183.352 77.8966 186.448C67.3059 192.145 58.1359 197.069 45.1989 194.983C38.1815 193.844 33.166 191.199 28.7747 188.856C23.1565 185.867 18.7437 183.524 12.1137 185.136C5.84973 186.684 2.38408 190.597 -0.973955 194.403C-4.41809 198.294 -7.69001 201.992 -13.4374 202.164C-13.6311 202.143 -13.7603 202.143 -13.8894 202.143Z" fill="#6F8DCE"/>
<path d="M172.675 139.427C173.6 144.157 177.174 147.447 180.661 146.759C184.148 146.092 186.236 141.706 185.332 136.976C184.406 132.246 180.833 128.957 177.346 129.645C173.837 130.311 171.749 134.697 172.675 139.427Z" fill="#F19C7C"/>
<path d="M179.735 147.662C177.669 147.662 175.602 146.523 174.031 144.502C173.751 144.158 173.837 143.642 174.182 143.362C174.526 143.083 175.043 143.169 175.322 143.513C176.765 145.405 178.724 146.329 180.51 145.964C181.35 145.813 182.082 145.383 182.749 144.738C183.072 144.416 183.567 144.416 183.89 144.738C184.213 145.061 184.213 145.555 183.89 145.878C183.029 146.738 181.952 147.318 180.833 147.533C180.446 147.619 180.101 147.662 179.735 147.662Z" fill="#22130C"/>
<path d="M174.009 143.814C173.73 143.814 173.471 143.663 173.321 143.427C172.761 142.481 172.33 141.427 172.051 140.309C171.943 139.879 172.201 139.449 172.632 139.32C173.062 139.213 173.493 139.471 173.622 139.901C173.859 140.868 174.246 141.771 174.72 142.588C174.957 142.975 174.827 143.47 174.44 143.685C174.289 143.771 174.16 143.814 174.009 143.814Z" fill="#22130C"/>
<path d="M172.524 139.298C172.115 139.298 171.771 138.997 171.728 138.589C171.19 133.751 173.536 129.559 177.195 128.849C178.056 128.677 178.917 128.72 179.778 128.957C180.209 129.064 180.467 129.516 180.36 129.946C180.252 130.376 179.8 130.634 179.369 130.526C178.745 130.354 178.121 130.333 177.497 130.462C174.677 130.999 172.89 134.439 173.342 138.438C173.385 138.89 173.084 139.277 172.632 139.32C172.589 139.298 172.546 139.298 172.524 139.298Z" fill="#22130C"/>
<path d="M181.113 142.846C180.855 142.846 180.596 142.717 180.424 142.48L175.731 135.256C175.495 134.891 175.602 134.375 175.968 134.138C176.334 133.902 176.851 134.009 177.088 134.375L181.78 141.599C182.017 141.964 181.909 142.48 181.543 142.717C181.414 142.803 181.264 142.846 181.113 142.846Z" fill="#22130C"/>
<path d="M178.637 138.546C178.551 138.546 178.444 138.524 178.358 138.503C177.949 138.352 177.733 137.879 177.884 137.471L178.917 134.697C179.068 134.289 179.542 134.074 179.951 134.224C180.36 134.375 180.575 134.848 180.424 135.256L179.391 138.03C179.262 138.352 178.96 138.546 178.637 138.546Z" fill="#22130C"/>
<path d="M168.908 361.909C160.427 361.909 149.018 360.404 140.386 352.6C134.036 346.859 135.478 343.376 130.57 341.033C118.387 335.249 104.287 354.083 86.2056 349.009C82.9337 348.085 80.4797 346.644 79.0805 345.72C79.1882 340.259 78.9299 334.088 78.0904 327.402C90.1879 323.919 112.812 324.607 127.298 326.391C153.409 329.616 160.168 337.227 162.45 340.216C168.284 347.848 168.994 356.771 168.908 361.909Z" fill="#22130C"/>
<path d="M169.64 362.404C167.573 361.007 164.194 358.749 159.932 356.126C153.452 352.127 151.063 351.052 147.382 348.3C141.161 343.656 140.795 341.399 137.695 339.163C124.543 329.703 104.524 351.375 86.5715 342.925C78.6716 339.206 75.3135 331.616 69.889 333.25C65.5408 334.562 65.3256 340.173 60.2024 342.388C55.3376 344.473 49.6117 342.001 45.6725 339.7C45.5218 337.851 45.5003 334.906 46.5766 331.616C49.3534 323.081 57.3825 318.802 59.1261 317.663C65.8422 313.298 70.8792 296.378 61.4294 238.672C63.3237 233.92 65.9713 228.717 69.7384 223.536C85.3876 202.079 109.346 195.908 118.516 194.059C131.991 197.048 145.466 200.058 158.92 203.046C172.395 221.343 185.87 239.639 199.324 257.936C199.044 270.9 198.118 281.5 197.3 288.853C194.76 311.858 193.081 325.983 185.009 341.291C179.8 351.267 173.665 358.298 169.64 362.404Z" fill="#F28C1C"/>
<path d="M232.775 320.801C232.581 321.726 231.914 323.424 230.967 325.531C230.041 327.208 223.368 340.495 212.11 341.613C212.11 341.613 210.216 341.764 208.343 341.484C201.821 340.495 192.414 318.221 183.847 293.432C182.168 288.487 180.489 283.391 178.939 278.296C172.933 259.462 167.832 241.509 165.335 232.329C161.74 221.858 158.123 211.538 154.658 201.068C180.446 206.034 192.005 216.354 197.731 225.212C199.561 228.029 199.41 228.416 208.128 260.623C208.967 264.041 209.85 267.051 210.732 269.954L210.711 270.362C215.145 286.401 217.944 294.786 223.196 304.956C226.791 311.922 230.321 317.275 232.775 320.801Z" fill="#F19C7C"/>
<path d="M211.314 269.846C211.163 269.975 210.883 270.212 210.732 270.341C201.735 277.93 192.737 285.67 183.847 293.41C182.168 288.465 180.489 283.37 178.939 278.274C189.486 275.479 200.185 272.706 210.754 269.932C210.905 269.954 211.185 269.846 211.314 269.846Z" fill="#22130C"/>
<path d="M213.789 268.514C199.84 275.781 185.892 283.069 171.943 290.336C166.088 274.899 160.233 259.462 154.399 244.025C149.018 231.534 143.636 219.064 138.255 206.572C143.12 203.476 163.72 191.071 180.898 198.875C195.126 205.347 201.024 222.848 208.02 245.1C211.012 254.668 212.756 262.816 213.789 268.514Z" fill="#F28C1C"/>
<path d="M213.036 301.817C212.584 301.817 212.218 301.452 212.218 301L212.541 279.565C212.541 279.113 212.95 278.791 213.359 278.769C213.811 278.769 214.155 279.135 214.155 279.586L213.832 301.022C213.832 301.452 213.466 301.817 213.036 301.817Z" fill="#22130C"/>
<path d="M32.348 316.179C32.0466 316.179 31.7453 316.007 31.6161 315.706C31.4224 315.298 31.6161 314.825 32.0036 314.631L35.5338 313.019C35.9213 312.825 36.4164 313.019 36.6101 313.406C36.8038 313.814 36.6101 314.287 36.2226 314.481L32.6924 316.093C32.5848 316.158 32.4771 316.179 32.348 316.179Z" fill="#22130C"/>
</g>
<defs>
<clipPath id="clip0_30_3170">
<rect width="1201" height="473" rx="24" fill="white"/>
</clipPath>
</defs>
</svg>
