<svg width="22" height="22" viewBox="0 0 22 22" fill="none" xmlns="http://www.w3.org/2000/svg">
<g clip-path="url(#clip0_16_146)">
<path d="M11 0C17.0753 0 22 4.9247 22 11C22 17.0753 17.0753 22 11 22C4.9247 22 0 17.0753 0 11C0 4.9247 4.9247 0 11 0ZM11 1.5345C8.48959 1.5345 6.08201 2.53176 4.30688 4.30688C2.53176 6.08201 1.5345 8.48959 1.5345 11C1.5345 13.5104 2.53176 15.918 4.30688 17.6931C6.08201 19.4682 8.48959 20.4655 11 20.4655C13.5104 20.4655 15.918 19.4682 17.6931 17.6931C19.4682 15.918 20.4655 13.5104 20.4655 11C20.4655 8.48959 19.4682 6.08201 17.6931 4.30688C15.918 2.53176 13.5104 1.5345 11 1.5345ZM9.977 6.1391C10.4005 6.1391 10.7437 6.4834 10.7437 6.9069V12.2793H16.1161C16.3146 12.2868 16.5024 12.3709 16.6401 12.514C16.7779 12.6571 16.8548 12.8479 16.8548 13.0466C16.8548 13.2452 16.7779 13.436 16.6401 13.5791C16.5024 13.7222 16.3146 13.8063 16.1161 13.8138H9.977C9.77337 13.8138 9.57807 13.7329 9.43408 13.5889C9.29009 13.4449 9.2092 13.2496 9.2092 13.046V6.908C9.2092 6.4834 9.5524 6.1391 9.977 6.1391Z" fill="#9F9F9F"/>
</g>
<defs>
<clipPath id="clip0_16_146">
<rect width="22" height="22" fill="white"/>
</clipPath>
</defs>
</svg>
