<svg width="103" height="102" viewBox="0 0 103 102" fill="none" xmlns="http://www.w3.org/2000/svg">
<path d="M87.2505 87.1098C106.995 67.3655 106.995 35.3537 87.2505 15.6095C67.5062 -4.13481 35.4944 -4.13482 15.7502 15.6095C-3.99411 35.3537 -3.9941 67.3655 15.7502 87.1098C35.4944 106.854 67.5062 106.854 87.2505 87.1098Z" fill="#EDDDD6"/>
<path d="M26.9961 95.5799C20.988 92.2722 15.7282 87.7499 11.5312 82.36C16.3681 75.3434 28.9264 65.1709 35.7587 62.9043C44.4346 60.0304 31.6485 79.985 26.9961 95.5799Z" fill="#7772D3"/>
<path d="M63.1534 30.7816C65.7128 30.4563 68.3589 30.9985 70.4628 32.4951C72.3065 33.8073 74.0742 35.998 74.7032 39.631C76.2215 48.3503 73.0982 50.7687 78.0868 54.0547C83.0755 57.3407 85.8951 55.3236 89.0401 63.4464C92.1852 71.5692 87.3483 82.4466 77.2626 80.256C67.1769 78.0545 42.7324 71.3849 42.7324 71.3849L41.5938 35.2605L53.8268 31.9637L63.1534 30.7816Z" fill="#E56445"/>
<path d="M79.0941 93.7146C73.9319 97.0873 68.1191 99.5383 61.8833 100.84C58.5213 101.545 55.051 101.913 51.483 101.913C49.9539 101.913 48.4356 101.848 46.939 101.707C44.5097 101.49 42.1347 101.1 39.8139 100.547C35.2699 99.4732 30.9754 97.7922 26.9953 95.5799C22.679 93.2048 18.7532 90.2008 15.3262 86.6979C16.8119 82.566 18.3735 78.9221 19.9569 76.2651C27.4941 63.62 38.5017 62.4271 38.5017 62.4271C50.2901 58.9675 60.3541 58.3494 71.0472 63.5549C75.8515 65.8866 78.1723 79.4101 79.0941 93.7146Z" fill="#7772D3"/>
<path d="M73.803 91.3938L73.4886 96.8813C69.8447 98.649 65.9513 99.9938 61.8845 100.84C58.5226 101.545 55.0522 101.913 51.4842 101.913C49.9551 101.913 48.4368 101.848 46.9402 101.707C44.511 101.49 42.1359 101.1 39.8151 100.547C35.2711 99.4732 30.9766 97.7922 26.9965 95.5799C26.7796 95.4606 26.5627 95.3413 26.3567 95.2112C23.9816 93.8772 21.7367 92.3373 19.6328 90.6129C26.4 76.5254 35.7592 62.9042 35.7592 62.9042L50.0202 59.9327L68.1745 63.0344L73.803 91.3938Z" fill="#46467F"/>
<path d="M35.7585 62.9043C35.7585 62.9043 30.0867 81.3515 26.356 95.2112C23.8509 93.8014 21.4975 92.1638 19.2852 90.3419L31.3339 66.353L35.7585 62.9043Z" fill="#7772D3"/>
<path d="M31.3341 38.102C31.3341 38.102 26.4755 30.2286 26.8551 26.8342C27.7878 18.4727 39.5111 12.6816 51.2235 16.6183C62.936 20.555 65.3219 35.098 63.5 41.4314C58.7933 57.7421 44.5539 52.0811 44.5539 52.0811C44.5539 52.0811 22.4304 47.9708 31.3341 38.102Z" fill="#E56445"/>
<path d="M35.248 55.5079L35.2697 55.8116L35.9313 61.516L36.4301 65.9841C36.4301 65.9841 36.1156 67.0578 41.3103 66.3528C48.2727 65.3768 50.3116 62.2209 50.3116 62.2209L49.8669 51.6906L47.7739 52.2436L35.248 55.5079Z" fill="#FCA397"/>
<path d="M35.2695 55.8115L35.9311 61.5159C39.3039 60.8653 45.3878 58.9566 47.5026 53.4365C47.6653 52.9919 47.7629 52.5906 47.7846 52.2653L35.2912 55.7356L35.2695 55.8115Z" fill="black"/>
<path d="M31.127 28.6019C31.127 28.6019 25.672 43.9475 28.6002 52.1462C31.5283 60.3449 39.0655 58.4905 43.501 56.5492C47.9474 54.608 49.867 51.669 49.867 51.669C49.867 51.669 54.2266 52.8077 56.7969 48.6541C59.3671 44.4897 57.2957 40.065 54.7905 39.1974C52.2853 38.3298 49.5199 40.2819 49.5199 40.2819L51.4828 35.7921C51.4828 35.7921 40.3994 14.4819 31.127 28.6019Z" fill="#FCA397"/>
<path d="M33.1117 47.537C32.8948 47.537 32.6888 47.4068 32.6129 47.1899C31.3657 44.0557 33.3828 40.6179 33.4696 40.4769C33.6214 40.2167 33.9576 40.1407 34.2071 40.2926C34.4673 40.4444 34.5541 40.7806 34.3914 41.0409C34.3697 41.0734 32.5695 44.1642 33.6106 46.7995C33.719 47.0815 33.5889 47.396 33.3069 47.5044C33.2418 47.5261 33.1768 47.537 33.1117 47.537Z" fill="black"/>
<path d="M50.6589 47.2768C50.5396 47.2768 50.4204 47.2334 50.3228 47.1575C50.095 46.9731 50.0516 46.6261 50.2468 46.3984L53.9558 41.8001C54.1402 41.5724 54.4872 41.529 54.715 41.7134C54.9427 41.8977 54.986 42.2448 54.7908 42.4725L51.0819 47.0708C50.9735 47.2117 50.8108 47.2768 50.6589 47.2768Z" fill="black"/>
<path d="M54.8459 45.8018C54.8025 45.8018 51.9828 45.5957 51.9828 45.5957C51.6791 45.5741 51.4622 45.3138 51.4839 45.0101C51.5056 44.7065 51.7985 44.4896 52.0696 44.5113L54.9001 44.7173C55.2037 44.739 55.4206 44.9993 55.3989 45.3029C55.3664 45.5849 55.1278 45.8018 54.8459 45.8018Z" fill="black"/>
<path d="M37.983 51.7557C36.5298 51.7557 35.3152 50.7038 35.2501 50.6496C35.1092 50.5303 35.0441 50.3351 35.0766 50.1507C35.1091 49.9663 35.2285 49.8145 35.402 49.7386L41.0738 47.3527C41.2582 47.2768 41.4751 47.3093 41.6269 47.4395C41.7788 47.5696 41.8547 47.7757 41.8113 47.9709C41.7896 48.0576 41.3124 50.2375 39.458 51.3545C38.9591 51.6473 38.4602 51.7557 37.983 51.7557ZM36.7576 50.3459C37.3432 50.6387 38.1566 50.8556 38.8832 50.4218C39.5664 50.0097 40.0219 49.3915 40.3038 48.8493L36.7576 50.3459Z" fill="black"/>
<path d="M41.5933 35.9437C41.409 35.9437 41.2355 35.857 41.127 35.6834C40.3787 34.4688 38.6436 34.9568 38.5785 34.9785C38.2965 35.0653 37.9929 34.9026 37.9061 34.6098C37.8194 34.3278 37.982 34.0242 38.2748 33.9374C38.3833 33.9049 40.8776 33.1891 42.0597 35.1087C42.2115 35.3581 42.1356 35.6943 41.8862 35.857C41.7886 35.922 41.6909 35.9437 41.5933 35.9437Z" fill="black"/>
<path d="M30.0006 35.1196C29.8705 35.1196 29.7295 35.0654 29.6211 34.9678C29.4042 34.7617 29.4042 34.4147 29.6102 34.1978C29.6536 34.1435 30.8249 32.9831 32.1371 33.0374C32.7878 33.0699 33.3842 33.3844 33.8506 33.97C34.0349 34.2086 34.0024 34.5448 33.7638 34.7292C33.5253 34.9135 33.1891 34.881 33.0047 34.6424C32.7336 34.3062 32.4299 34.1327 32.0937 34.111C31.2478 34.0568 30.4019 34.9352 30.391 34.9352C30.2826 35.0654 30.1416 35.1196 30.0006 35.1196Z" fill="black"/>
<path d="M31.1375 41.4422C30.8013 41.4206 30.5735 41.1603 30.5952 40.8675L30.7688 38.3081L29.7711 37.2561C29.565 37.0392 29.5758 36.6922 29.7927 36.4861C30.0096 36.2801 30.3567 36.2909 30.5627 36.5078L31.7231 37.7333C31.8316 37.8417 31.8858 37.9936 31.875 38.1454L31.6797 40.9434C31.658 41.2145 31.4194 41.4422 31.1375 41.4422Z" fill="black"/>
<path d="M40.4882 41.4422C40.1629 41.4314 39.9351 41.1711 39.946 40.8783L40.0762 38.3514L38.6229 37.126C38.3952 36.9308 38.3627 36.5946 38.5579 36.3668C38.7531 36.1391 39.0893 36.1066 39.317 36.3018L40.9763 37.7008C41.1064 37.8092 41.1715 37.9719 41.1715 38.1454L41.0305 40.9434C41.0196 41.2253 40.7702 41.4422 40.4882 41.4422Z" fill="black"/>
<path d="M57.0238 25.8364C57.0238 25.8364 54.9959 7.99652 67.2506 9.64494C80.232 11.391 68.5303 32.3216 60.2339 31.3889C56.5358 30.9768 57.0238 25.8364 57.0238 25.8364Z" fill="#E56445"/>
<path d="M36.008 67.3289C35.6067 67.3289 35.3573 67.318 35.3139 67.318C35.0103 67.3072 34.7825 67.0469 34.8042 66.7541C34.815 66.4504 35.0645 66.2118 35.3681 66.2335C35.444 66.2335 42.9487 66.5589 49.0544 62.9367C49.3146 62.7849 49.64 62.8716 49.7918 63.121C49.9436 63.3813 49.8569 63.7067 49.6075 63.8693C44.2609 67.0469 38.0685 67.3289 36.008 67.3289Z" fill="#F7734F"/>
<path d="M87.2065 87.1426C78.0534 96.2632 65.43 101.913 51.4835 101.913C49.9543 101.913 48.436 101.848 46.9395 101.707C47.8721 96.5018 48.8807 92.9338 48.8807 92.9338L61.6994 60.5076C61.6994 60.5076 74.4529 60.7895 82.9987 73.8685C84.8423 76.699 86.3172 81.4382 87.2065 87.1426Z" fill="#7772D3"/>
<path d="M61.8838 100.84C58.5219 101.545 55.0515 101.913 51.4836 101.913C49.9544 101.913 48.4361 101.848 46.9396 101.707C44.5103 101.49 42.1353 101.1 39.8145 100.547C44.3585 81.3406 50.3124 59.9436 50.3124 59.9436L61.6995 60.5075L61.8838 100.84Z" fill="#7772D3"/>
<path d="M63.1516 31.3239C62.8804 31.3239 62.6419 31.1179 62.6093 30.8359C61.8393 23.0926 56.6664 20.338 56.6121 20.3055C56.341 20.1645 56.2434 19.8392 56.3735 19.5789C56.5145 19.3078 56.8398 19.2102 57.1001 19.3403C57.3387 19.4596 62.8587 22.3986 63.6829 30.7274C63.7155 31.0203 63.4986 31.2914 63.1949 31.3239C63.1841 31.3239 63.1733 31.3239 63.1516 31.3239Z" fill="white"/>
<path d="M38.74 22.2793C38.74 22.2793 36.8856 24.6652 36.6361 28.5043C36.3867 32.3434 36.3867 32.3434 36.3867 32.3434L52.2962 36.985L52.6215 29.2851L38.74 22.2793Z" fill="#E56445"/>
<path d="M37.4178 24.8169C37.4178 24.8169 36.0189 26.0315 35.3899 27.6691C34.7609 29.3067 34.0993 32.5385 34.0993 32.5385L29.4902 32.0179L30.0108 23.9819L36.2249 20.1753L39.9772 20.5982L39.4024 25.7821L37.4178 24.8169Z" fill="#E56445"/>
</svg>
